<svg width="299" height="340" viewBox="0 0 299 340" fill="none" xmlns="http://www.w3.org/2000/svg">
<path d="M138.58 319.441C137.376 318.277 136.594 318.562 136.111 320.134C135.24 322.974 134.252 325.781 133.516 328.654C133.347 329.319 133.839 330.326 134.308 330.958C136.186 333.475 138.177 335.901 140.342 338.637H130.049C130.41 336.514 130.626 334.671 131.061 332.886C131.446 331.319 131.277 330.051 130.317 328.683C128.92 326.688 127.806 324.499 126.545 322.404C126.166 321.773 125.693 321.203 124.934 320.671C123.116 326.432 124.123 332.416 123.079 338.314H120.975C120.943 337.868 120.854 337.488 120.891 337.122C121.987 326.432 123.14 315.741 124.184 305.046C125.332 293.245 126.78 281.457 127.346 269.627C127.824 259.616 126.981 249.548 127.206 239.518C127.337 233.653 128.307 227.792 129.113 221.96C130.162 214.4 130.532 206.844 129.651 199.25C129.567 198.504 129.347 197.778 129.192 197.042C128.991 197.056 128.789 197.07 128.588 197.084V206.122C128.307 196.253 127.782 186.408 129.656 176.62C130.56 171.909 130.181 167.16 128.991 162.264C127.403 155.734 127.159 148.852 126.522 142.104C126.353 140.304 126.044 139.126 124.564 137.744C122.863 136.153 121.969 133.579 120.999 131.309C119.884 128.697 119.069 125.952 117.691 123.392C118.151 137.601 117.729 151.825 122.737 165.441C122.428 165.493 122.118 165.545 121.814 165.598C121.13 163.171 120.446 160.749 119.762 158.322C119.472 169.986 119.575 181.569 123.079 192.843C122.887 192.877 122.695 192.905 122.503 192.938C121.847 190.716 121.196 188.493 120.54 186.266C120.39 186.29 120.245 186.313 120.095 186.337C120.095 189.253 120.034 192.169 120.104 195.08C120.352 205.357 120.751 215.634 120.844 225.912C120.872 228.79 119.8 231.658 119.664 234.555C119.444 239.266 119.209 244.025 119.626 248.703C121.041 264.579 121.36 280.451 120.118 296.341C119.064 309.824 117.884 323.293 116.755 336.771C116.717 337.231 116.6 337.687 116.502 338.276H113.925C114.183 335.341 114.3 332.439 114.731 329.59C115.068 327.381 113.916 326.465 112.304 325.634C111.283 327.496 111.367 330.625 112.595 338.062H81.9994C81.5919 335.588 81.1749 333.09 80.7627 330.592C80.4488 330.592 80.1396 330.592 79.8258 330.592C79.5915 332.321 79.1137 334.059 79.184 335.778C79.2917 338.328 78.2049 338.974 75.9797 338.528C75.3051 338.395 74.6118 338.376 73.2861 338.238C73.9466 333.617 74.3073 329.067 75.2817 324.656C77.877 312.892 82.3133 301.898 89.4105 292.119C93.6875 286.23 97.2244 280.028 98.9109 272.776C101.492 261.696 100.935 250.835 96.5217 240.449C89.9024 224.867 81.2967 210.334 71.4497 196.666C66.3388 189.571 59.8365 183.526 54.215 176.786C48.4857 169.924 42.4847 163.294 37.9219 155.458C32.5393 146.212 26.4634 137.373 21.1135 128.108C16.3306 119.821 11.4351 111.472 7.86078 102.624C4.52533 94.3653 2.8623 85.4132 0.459092 76.765C0.360715 76.3518 0.163961 75.9386 0 75.516C0 71.7167 0 67.9174 0 64.118C1.60214 56.4387 7.59376 53.423 13.8758 50.7445C24.2007 46.342 35.1674 44.072 45.8249 40.7856C58.4358 36.896 71.2623 34.5262 84.2106 32.4366C90.4317 31.4345 96.5779 29.967 102.771 28.7987C104.359 28.4995 106.008 28.528 107.699 28.9317C104.125 29.6013 100.546 30.2615 96.9715 30.9454C83.1706 33.5764 69.351 36.0887 55.5876 38.9096C50.4861 39.9545 45.5204 41.6926 40.5078 43.1696C30.7873 46.0334 21.1604 49.125 11.7022 52.8578C5.1765 55.4319 1.01188 62.5983 1.72862 69.2519C3.06842 81.6851 5.77612 93.7479 10.8402 105.165C16.71 118.401 24.4958 130.554 31.8366 142.973C42.4566 160.939 55.8452 176.692 69.5243 192.207C76.8089 200.47 82.2196 209.954 88.066 219.182C90.0898 222.373 92.2494 225.479 94.1045 228.766C95.8003 231.767 97.2197 234.94 98.6532 238.084C99.6604 240.297 100.494 242.591 101.403 244.846C101.623 244.846 101.839 244.856 102.059 244.856C102.195 243.08 102.57 241.284 102.424 239.532C101.511 228.742 100.279 217.985 97.5898 207.48C94.3856 194.942 89.6213 182.975 83.2268 171.795C78.3454 163.266 72.6771 155.206 67.36 146.933C67.0368 146.43 66.751 145.908 66.8775 145.015C67.88 146.098 68.9059 147.157 69.8803 148.263C70.8641 149.384 71.8057 150.538 72.7473 151.697C86.3467 168.442 94.9899 187.643 99.9509 208.615C102.888 221.048 104.617 233.638 104.064 246.475C104.026 247.368 104.486 248.28 104.856 249.747C105.891 248.65 106.509 248.08 107.025 247.43C109.325 244.538 111.33 241.337 113.944 238.772C118.371 234.427 119.584 229.127 119.49 223.252C119.355 214.552 119.261 205.851 119.008 197.151C118.577 182.205 118.038 167.264 117.546 152.324C117.528 151.692 117.499 151.06 117.49 150.424C117.443 147.665 117.176 145.138 114.075 143.889C112.923 143.424 112.093 142.142 111.1 141.253C105.999 136.718 100.864 132.316 94.7322 129.1C90.9377 127.115 87.7334 123.981 84.5198 121.554C85.1803 123.929 85.9767 126.816 86.7777 129.704C86.5997 129.765 86.4264 129.827 86.2484 129.889C85.8736 128.744 85.5972 127.552 85.11 126.455C83.2455 122.29 81.3342 118.144 79.3948 114.012C79.0669 113.31 78.6031 112.592 78.0128 112.113C72.4756 107.582 69.4868 101.076 65.3737 95.4433C64.493 94.237 63.5561 93.064 62.7129 91.8292C60.7032 88.8848 60.9562 87.1608 63.7904 84.9762C64.8397 84.1689 65.9687 83.3805 67.182 82.9009C82.5101 76.8695 97.8334 70.8096 113.227 64.9539C118.389 62.9878 123.814 61.734 128.991 59.8058C130.762 59.1457 132.354 57.607 133.675 56.1395C138.341 50.9487 142.403 45.1073 147.537 40.4674C154.395 34.2745 162.682 30.0525 171.494 27.4215C178.17 25.4316 185.061 25.3651 191.638 28.5233C192.453 28.9127 193.437 29.0932 194.341 29.1027C199.213 29.1644 203.781 30.385 208.001 32.7928C209.561 33.6856 210.634 33.4719 211.96 32.3748C214.616 30.1807 217.633 28.3903 220.078 25.992C222.402 23.7172 224.369 20.9959 226.145 18.2414C227.546 16.0711 229.045 14.9265 231.696 15.3634C234.001 15.7434 236.409 15.5582 238.672 16.0711C240.597 16.508 242.546 17.3438 244.157 18.4789C245.047 19.1058 245.633 20.6825 245.731 21.884C246.298 29.0267 243.356 35.1341 239.721 40.9138C238.953 42.1391 237.299 42.7849 236.081 43.7348C234.366 45.0693 232.539 46.2945 231.059 47.8618C230.525 48.4317 230.858 49.8422 230.792 50.868C231.64 50.8965 232.568 51.1577 233.326 50.9107C236.592 49.8516 239.88 48.8068 243 47.4011C244.307 46.8122 245.408 45.473 246.279 44.2382C248.851 40.5908 251.273 36.8343 253.714 33.092C254.178 32.3843 254.538 31.5722 254.791 30.7601C255.916 27.1413 256.979 23.5035 258.071 19.8751C258.815 17.4056 257.429 13.0031 255.204 11.7684C249.68 8.70041 244.073 5.79394 238.484 2.84948C235.669 1.363 232.722 1.1208 229.621 1.86641C226.604 2.59303 223.54 3.12493 220.392 3.34339C224.365 2.22734 228.342 1.11605 232.315 0C233.406 0 234.502 0 235.594 0C241.909 3.49536 248.256 6.92424 254.506 10.5241C255.934 11.3457 257.002 12.8037 258.291 13.896C259.616 15.0168 260.872 16.3703 262.404 17.0684C265.824 18.6308 266.803 20.1126 267.121 23.8881C267.262 25.5266 268.363 27.0796 269.023 28.6705C268.405 28.2478 267.786 27.8252 266.84 27.1793C266.348 28.3808 265.945 29.3544 265.552 30.3327C263.716 34.8539 262.718 40.0447 259.846 43.7395C255.738 49.0253 252.903 55.9638 245.45 58.0297C243.567 58.5521 243.558 60.7509 245.127 61.6865C246.959 62.7788 249.484 62.4606 251.161 61.1213C253.784 59.027 256.464 57.0086 259.153 55.0045C261.739 53.0763 264.189 51.2147 264.943 47.6338C265.341 45.7342 266.985 44.1384 267.81 42.2863C268.545 40.6288 269.29 38.8337 269.384 37.0622C269.529 34.2602 269.136 31.4298 268.972 28.6088C269.538 30.9881 270.503 33.3532 270.583 35.7515C270.766 41.1892 270.48 46.6412 270.452 52.0885C270.443 54.615 270.569 57.1416 270.686 59.6634C270.827 62.7503 270.274 63.9423 267.473 64.9397C263.224 66.4451 258.914 67.7749 254.595 69.0571C252.73 69.6128 250.941 68.2023 250.575 66.0889C250.444 65.3196 250.467 64.5217 250.407 63.5007C247.366 62.9403 243.202 63.9661 243.033 58.7278C241.52 59.0175 240.737 59.5304 241.117 61.2306C241.464 62.7883 241.51 64.4125 241.688 66.0082L241.735 65.9702C241.14 64.669 240.321 63.4199 240.007 62.0522C239.632 60.4232 239.06 60.0053 237.43 60.485C232.235 62.0189 230.094 60.3045 229.888 54.691C229.869 54.1876 229.71 53.575 229.396 53.2093C224.515 47.5531 219.699 41.8161 213.464 37.5941C208.362 34.1415 203.045 31.1828 196.735 30.7364C193.756 30.5227 193.273 30.9833 193.254 33.9183C193.245 35.4998 193.142 37.0812 193.048 38.6579C192.851 42.0536 192.992 42.215 196.215 42.8372C198.004 43.1839 199.766 43.654 201.438 44.5231C198.918 44.1622 196.393 43.7965 193.104 43.3263C195.119 47.1874 196.904 50.6115 198.693 54.0404C198.44 54.2493 198.187 54.4631 197.934 54.672C196.721 53.4135 195.503 52.1502 194.397 51.0009C194.66 53.9312 193.339 57.7115 195.957 60.4327C198.314 62.8785 201.354 64.6452 203.926 67.0198C200.914 65.1249 197.906 63.2252 194.889 61.3256C192.983 64.3983 195.714 68.2925 192.837 71.256C193.02 69.0476 193.203 66.8346 193.428 64.0896C191.989 66.0699 190.879 67.5992 189.774 69.1284C189.502 68.9479 189.226 68.7674 188.954 68.587C190.031 66.9913 191.198 65.4526 192.167 63.7904C193.31 61.8385 193.69 59.7441 193.245 57.4218C192.851 55.3749 192.837 53.252 192.622 50.7872C191.156 52.9243 189.956 54.6768 188.752 56.4292C188.602 56.3295 188.453 56.2297 188.303 56.1348C188.724 55.4271 189.122 54.7053 189.572 54.0166C190.045 53.2948 190.842 52.6679 191.015 51.889C191.427 50.0321 191.554 48.1087 191.797 46.2138C190.289 46.1948 188.673 45.8101 187.295 46.2281C183.21 47.4771 179.214 49.0301 175.19 50.488C174.047 50.9012 172.932 51.3999 171.808 51.8605L171.476 51.0389C174.577 49.7329 177.631 48.2892 180.793 47.1541C184.086 45.9764 187.502 45.1453 190.814 44.0245C191.315 43.8535 191.835 42.9179 191.868 42.31C192.036 39.1329 191.975 35.9462 192.144 32.769C192.266 30.404 191.048 29.2879 189.015 28.7465C181.95 26.8658 174.834 26.7614 168.154 29.7961C161.914 32.6313 155.979 36.1741 150.001 39.5698C148.479 40.4341 147.181 41.8209 145.982 43.1506C142.937 46.532 139.728 49.8137 137.109 53.518C134.917 56.6192 133.104 60.1193 131.773 63.6954C128.883 71.4507 126.044 79.2678 123.903 87.2558C122.657 91.9005 122.311 96.9488 122.521 101.769C122.643 104.562 122.151 107.444 122.943 110.237C123.763 113.12 124.334 116.078 125.206 118.942C125.763 120.789 126.658 122.532 127.623 124.845C128.396 123.164 128.911 122.048 129.506 120.756C129.703 121.378 129.839 121.815 129.979 122.271C134.907 113.974 142.918 107.9 145.977 98.3213C146.174 98.421 146.371 98.5208 146.572 98.6157C146.24 99.5513 145.879 100.482 145.574 101.432C145.218 102.548 144.797 103.664 144.614 104.818C144.45 105.863 144.581 106.955 144.895 108.176C148.324 102.724 151.271 96.9631 157.534 94.1373C155.285 96.5546 153.037 98.9767 150.479 101.726C152.578 100.549 154.377 99.5418 156.817 98.1741C155.553 99.6748 154.836 101.081 153.697 101.769C149.397 104.367 146.282 107.953 144.056 112.45C143.279 114.017 142.234 115.451 141.086 116.819C142 113.504 142.913 110.189 143.827 106.874C143.705 106.817 143.579 106.765 143.457 106.708C143.101 107.169 142.731 107.625 142.393 108.1C140.557 110.66 138.927 113.2 136.341 115.337C133.53 117.66 131.413 121.35 130.068 124.864C127.909 130.52 126.728 136.481 127.623 142.735C128.307 147.494 128.133 152.376 128.869 157.12C129.44 160.801 130.391 164.557 131.937 167.925C135.025 174.659 138.618 181.156 142.037 187.728C145.485 194.358 150.212 199.825 156.325 204.089C163.32 208.962 170.337 209.332 177.214 204.27C182.18 200.613 186.569 196.153 191.334 192.202C195.231 188.968 199.302 185.948 203.298 182.837L203.251 182.789C201.766 184.357 200.366 186.024 198.773 187.477C194.439 191.428 190.008 195.27 185.661 199.212C185.215 199.616 184.808 200.409 184.859 200.974C185.45 207.575 186.021 214.186 186.822 220.763C187.347 225.071 188.129 229.359 189.019 233.61C189.333 235.101 190.228 236.497 191.006 237.851C200.825 255.043 212.93 270.511 225.892 285.337C229.096 289.004 232.137 292.822 235.266 296.56C235.861 297.272 236.517 297.942 237.885 298.607C237.988 297.709 238.344 296.745 238.147 295.919C236.512 288.923 234.769 281.956 233.088 274.975C232.774 273.674 232.45 272.339 232.408 271.009C232.188 263.558 228.028 258.153 223.634 252.725C221.887 250.564 220.95 247.729 220.125 244.989C223.526 249.705 226.927 254.425 230.67 259.616C230.839 252.777 227.658 246.67 230.328 240.311C230.445 240.677 230.591 240.89 230.572 241.094C229.719 251.595 232.694 261.625 234.521 271.745C237.8 289.892 243.253 307.468 249.357 324.841C250.809 328.972 251.788 333.275 253.086 337.849C247.863 338.229 243.202 338.57 238.264 338.931C238.868 336.614 239.965 334.69 238.391 332.824C239.299 333.712 239.974 333.684 240.358 332.335C241.257 329.181 242.358 326.08 239.515 323.193C238.39 322.053 237.725 320.457 236.816 319.094C236.329 318.368 235.767 317.698 235.144 316.876C234.376 317.798 233.846 318.434 233.312 319.075C233.425 318.643 233.42 318.106 233.673 317.788C235.036 316.064 234.535 314.516 233.486 312.868C231.841 310.28 230.338 307.606 228.726 304.994C228.342 304.372 227.77 303.873 226.983 302.966C226.576 304.125 226.285 304.809 226.098 305.521C225.372 308.276 224.95 311.149 223.91 313.771C222.599 317.076 220.772 320.168 219.226 323.383C219.029 323.796 219.001 324.542 219.244 324.879C220.922 327.215 222.688 329.49 224.73 332.183C226.801 328.982 228.614 326.161 230.45 323.354C231.41 321.887 232.408 320.453 233.392 319.004C232.905 320.794 232.422 322.585 231.935 324.375C231.701 324.356 231.321 324.233 231.261 324.328C229.359 327.182 227.447 330.036 225.667 332.967C225.489 333.256 226.042 334.102 226.389 334.595C227.377 335.987 228.431 337.326 229.883 339.235H208.662C209.819 336.851 211.032 334.334 212.264 331.827C212.433 331.48 212.705 331.181 212.897 330.844C214.911 327.339 214.722 323.926 212.33 320.604C211.098 318.9 209.828 317.218 208.226 315.048C206.099 318.467 204.207 321.512 202.314 324.551C203.373 322.67 203.008 321.018 201.808 319.427C202.314 319.873 202.82 320.324 203.317 320.761C207.866 316.102 207.987 314.635 204.324 309.767C203.851 309.14 203.387 308.513 202.9 307.901C201.668 306.352 200.426 304.809 199.021 303.052C198.07 304.429 197.503 305.483 196.726 306.329C194.547 308.689 194.196 310.973 196.716 313.3C195.896 312.602 195.072 311.904 193.919 310.921C193.132 312.151 192.36 313.362 191.587 314.573C190.28 316.634 188.888 318.653 187.726 320.799C187.389 321.417 187.375 322.694 187.783 323.164C190.654 326.493 193.718 329.647 196.622 332.948C198.257 334.809 199.724 336.823 201.199 338.817C201.354 339.031 201.045 339.596 200.951 339.995H178.47C177.509 339.478 177.046 338.889 177.612 337.678C178.343 336.12 178.943 334.477 179.407 332.815C179.608 332.093 179.322 331.233 179.261 330.435C179.814 330.008 180.554 329.69 180.887 329.129C181.805 327.59 182.456 325.881 183.407 324.366C184.129 323.212 184.012 322.48 183.061 321.55C180.728 319.261 178.549 316.805 176.179 314.559C175.724 314.127 174.666 314.355 173.883 314.279C173.893 313.495 174.23 312.417 173.851 311.975C171.476 309.202 168.941 306.571 166.112 303.517C164.936 306.124 163.844 308.518 162.795 310.931C162.697 311.158 162.776 311.595 162.94 311.79C165.409 314.777 167.901 317.746 170.604 320.97C171.56 319.36 172.23 318.235 172.895 317.109C172.698 317.698 172.614 318.363 172.291 318.866C170.941 320.965 171.836 322.395 173.396 323.896C174.722 325.173 175.767 326.75 176.933 328.194C175.055 326.375 173.171 324.551 171.11 322.556C170.464 323.625 169.986 324.413 169.508 325.202C169.714 323.929 170.553 322.172 170.023 321.474C167.733 318.434 165.044 315.708 162.003 312.317C160.396 316.881 158.939 320.98 157.534 325.097C157.44 325.373 157.665 325.895 157.909 326.128C160.373 328.498 162.87 330.829 165.535 333.342C166.758 330.896 167.793 328.811 168.833 326.731C168.669 327.334 168.637 328.013 168.323 328.521C165.896 332.454 166.632 335.55 170.51 338.015C171.026 338.343 171.138 339.321 171.438 340H168.627C164.627 339.815 160.626 339.615 156.625 339.449C155.421 339.397 154.208 339.44 153.491 339.44C152.943 337.682 152.559 336.448 152.175 335.218C152.704 334.804 153.496 334.5 153.707 333.959C154.194 332.729 154.236 331.319 154.747 330.098C155.627 327.98 155.061 326.65 153.444 325.016C150.339 321.882 147.439 318.515 145.387 314.488C144.267 312.289 142.871 310.237 141.241 307.511C140.051 310.256 139.199 312.412 138.187 314.492C137.32 316.273 137.231 317.883 138.585 319.427L138.58 319.441ZM172.965 268.074C173.176 267.362 173.757 266.483 173.527 265.97C172.647 263.995 171.508 262.138 170.211 259.773C168.66 262.043 167.414 263.99 166.046 265.842C165.062 267.167 164.758 268.459 165.662 269.917C164.491 269.209 163.722 269.585 163.062 270.743C162.05 272.515 161.052 274.329 159.806 275.929C157.211 279.273 155.168 282.54 159 286.354C159.132 286.482 159.019 286.829 159.108 287.038C160.959 291.288 163.217 295.273 166.402 298.872C169.072 294.684 171.611 290.732 174.085 286.738C174.324 286.349 174.122 285.679 174.122 285.138C174.427 285.138 174.895 285.276 175.003 285.133C176.75 282.83 178.474 280.508 180.128 278.138C180.311 277.881 180.151 277.221 179.95 276.87C178.385 274.153 176.839 271.418 175.115 268.806C174.783 268.302 173.696 268.307 172.956 268.074H172.965ZM237.196 30.9074C238.817 31.7337 240.349 33.149 242.251 31.4108C243.553 30.2235 244.715 25.5741 243.806 24.0971C243.553 23.6887 242.452 23.4417 241.937 23.6412C239.969 24.401 238.077 25.3699 236.161 26.2627C236.376 25.6263 236.788 25.2464 237.257 24.9757C238.676 24.1493 240.166 23.4417 241.539 22.5441C243.534 21.2381 243.52 19.6994 241.295 19.025C237.894 17.9945 234.357 17.3866 230.848 16.7834C230.038 16.6457 228.792 16.9782 228.272 17.567C226.449 19.6329 224.857 21.9078 222.87 24.5055C228.112 24.3678 231.926 26.1962 235.032 29.6108C232.816 28.4901 230.689 27.1033 228.361 26.3339C226.515 25.7261 223.901 25.0042 222.547 25.8495C218.767 28.2004 215.464 31.3443 211.913 34.2175C217.516 39.0996 222.8 43.7015 228.211 48.4174C228.52 48.1182 229.19 47.7763 229.359 47.2634C230.333 44.3094 232.811 43.3168 235.228 41.9396C237.144 40.852 238.775 38.9951 240.096 37.162C241.365 35.4048 240.995 33.6049 238.812 32.4841C238.175 32.1564 237.73 31.4393 237.196 30.9026V30.9074ZM116.553 142.759C116.553 139.226 116.68 135.797 116.525 132.377C116.263 126.716 115.588 121.065 115.523 115.409C115.466 110.541 116.146 105.668 116.244 100.791C116.3 97.8559 117.223 95.3721 118.97 93.1637C121.865 89.5069 123.5 85.3419 124.606 80.8112C125.552 76.9217 127.047 73.1699 128.311 69.3611C129.314 66.3406 130.34 63.3249 131.431 60.0718C129.862 60.5657 128.682 60.9314 127.506 61.3066C120.61 63.5149 113.625 65.4858 106.837 67.9933C98.3581 71.1278 90.0101 74.6469 81.6528 78.109C76.1812 80.3743 70.7564 82.7584 65.3691 85.2327C62.3943 86.6004 61.9071 88.6758 63.7763 91.3401C66.6573 95.4576 69.4868 99.6178 72.5693 103.579C77.1743 109.491 82.0463 115.19 86.6747 121.084C89.1716 124.261 92.3571 126.379 95.7769 128.355C99.9556 130.772 104.017 133.422 107.999 136.167C111.002 138.243 113.799 140.627 116.548 142.764L116.553 142.759ZM243.206 318.957C243.525 318.9 243.843 318.843 244.162 318.786C244.204 317.983 244.457 317.119 244.251 316.392C243.398 313.433 242.424 310.517 241.45 307.597C241.257 307.017 240.962 306.424 240.574 305.963C235.72 300.193 230.811 294.475 225.976 288.695C216.293 277.112 206.545 265.576 198.398 252.773C192.622 243.702 187.155 234.512 186.012 223.428C185.389 217.377 184.724 211.332 183.946 205.305C183.838 204.455 182.948 203.021 182.442 203.03C180.517 203.063 178.737 206.207 179.083 208.216C179.88 212.861 180.437 217.553 181.355 222.169C182.508 227.949 182.737 234.332 185.436 239.299C195.105 257.113 206.329 273.982 218.94 289.84C225.302 297.837 231.855 305.673 238.358 313.552C239.899 315.418 241.585 317.161 243.202 318.961L243.206 318.957ZM194.936 259.412C194.491 260.234 194.332 260.509 194.196 260.794C191.563 266.374 187.914 271.256 184.157 276.081C183.782 276.566 184.054 277.995 184.508 278.641C187.534 282.963 190.682 287.194 193.812 291.44C195.564 293.815 197.353 296.156 199.035 298.393C199.494 298.255 199.611 298.255 199.635 298.208C202.666 292.119 205.692 286.031 208.69 279.928C208.831 279.638 208.807 279.088 208.624 278.831C206.545 275.92 204.418 273.042 202.258 270.093C201.471 270.729 200.965 271.133 200.698 271.351C200.876 270.449 201.569 269.152 201.19 268.521C199.41 265.581 197.33 262.827 194.941 259.412H194.936ZM142.122 191.347C141.48 192.606 140.655 193.712 140.318 194.952C138.29 202.498 136.008 210.007 134.556 217.672C133.661 222.392 134.045 222.212 138.084 221.058C146.558 218.641 154.99 216.067 163.39 213.398C165.784 212.638 168.014 211.336 170.318 210.282C157.492 209.085 149.022 201.548 142.122 191.352V191.347ZM260.151 17.624C259.237 20.6112 258.516 23.3515 257.56 26.0015C256.548 28.794 255.517 31.615 254.121 34.2175C252.355 37.5087 249.938 40.4579 248.312 43.806C247.024 46.4608 245.502 48.4697 242.691 49.3672C240.166 50.1746 237.641 50.9867 235.144 51.889C233.247 52.5729 231.804 55.4366 232.413 57.0798C233.214 59.2359 234.737 59.8818 237.238 59.0745C240.358 58.0724 243.478 57.0703 246.57 56.0018C247.362 55.7263 248.191 55.3179 248.786 54.7433C254.609 49.0965 260.043 43.1696 262.746 35.2101C263.706 32.3843 264.957 29.6583 266.03 26.8658C266.25 26.296 266.287 25.6406 266.348 25.0184C266.798 20.5542 263.242 19.5237 260.146 17.624H260.151ZM170.904 254.63C171.518 253.922 171.803 253.651 172.019 253.333C174.478 249.7 176.558 245.706 179.5 242.538C181.824 240.04 182.644 237.889 181.154 234.93C180.849 234.322 180.03 233.98 179.486 233.548C181.238 230.3 178.835 227.294 178.502 223.546C177.528 224.368 176.905 224.719 176.507 225.251C173.541 229.203 170.609 233.173 167.695 237.162C165.709 239.883 165.498 242.704 167.053 245.782C168.07 247.796 168.702 250.009 169.555 252.108C169.864 252.872 170.332 253.57 170.904 254.625V254.63ZM140.908 238.492C140.604 238.463 140.299 238.44 139.995 238.411C138.711 240.909 137.437 243.407 136.139 245.901C135.769 246.613 135.395 247.33 134.95 247.99C132.977 250.916 130.771 253.775 132.818 257.612C133.835 259.516 133.952 261.625 134.247 263.71C134.495 265.486 134.996 267.224 135.385 268.977L136.154 269.114C136.519 268.621 136.941 268.155 137.24 267.628C138.379 265.629 139.353 263.515 140.637 261.62C141.859 259.816 143.326 258.168 144.815 256.567C147.022 254.197 146.998 251.771 145.345 249.144C144.6 247.962 143.789 246.779 143.279 245.487C142.379 243.198 141.686 240.824 140.908 238.487V238.492ZM132.865 223.817C132.012 224.373 130.673 224.767 130.424 225.527C130.04 226.681 130.274 228.129 130.598 229.359C130.658 229.587 132.429 229.573 133.319 229.326C138.285 227.968 143.274 226.667 148.16 225.038C157.487 221.932 166.753 218.645 176.024 215.364C177.701 214.77 178.535 211.351 177.317 209.807C176.155 208.335 174.783 209.427 173.607 210.073C171.283 211.346 169.114 212.984 166.683 213.958C159.867 216.684 152.985 219.258 146.057 221.671C141.888 223.124 137.639 224.506 132.874 223.812L132.865 223.817ZM94.6619 295.477C94.4137 295.444 94.1607 295.415 93.9124 295.382C93.4908 295.9 92.9708 296.37 92.6616 296.949C91.289 299.509 89.9726 302.097 88.6469 304.681C87.2743 307.359 85.8127 310 84.5807 312.749C83.7843 314.53 85.4895 317.176 86.9557 317.442C88.1222 321.611 89.8415 325.211 92.404 328.512C92.8724 327.657 93.0645 326.869 93.1441 326.066C93.5751 321.706 93.7063 317.29 94.4933 312.996C95.0086 310.194 96.4796 307.578 97.4868 304.861C98.2176 302.89 96.5358 299.514 95.0508 299.319C94.9149 297.994 94.7837 296.731 94.6573 295.472L94.6619 295.477ZM150.765 272.078C148.362 275.378 146.155 278.404 143.771 281.681C143.846 281.652 143.209 281.695 142.895 282.037C141.307 283.775 139.77 285.565 138.304 287.403C137.962 287.835 137.699 288.605 137.831 289.108C138.763 292.699 139.775 296.265 140.838 299.818C140.993 300.335 141.536 300.734 142.239 301.603C144.164 297.234 147.401 294.024 148.095 289.436C147.963 289.393 148.174 289.54 148.352 289.512C149.823 289.246 154.349 281.576 153.885 280.094C153.163 277.801 152.4 275.521 151.622 273.241C151.528 272.966 151.266 272.743 150.765 272.078ZM124.971 137.131C125.866 136.324 126.269 136.139 126.292 135.906C126.752 131.926 129.122 127.932 126.138 123.967C125.393 122.974 124.69 121.825 124.39 120.637C122.54 113.291 120.652 105.944 121.285 98.2263C121.43 96.4596 121.149 94.6597 121.064 92.874C120.774 92.7886 120.484 92.7078 120.193 92.6223C119.509 94.3463 118.474 96.0227 118.216 97.8131C117.668 101.627 117.93 105.592 117.12 109.335C115.977 114.625 117.228 119.251 119.453 123.886C120.568 126.208 121.369 128.678 122.353 131.067C123.14 132.976 123.983 134.856 124.962 137.126L124.971 137.131ZM269.74 43.0746C269.534 42.9987 269.323 42.9227 269.117 42.8514C268.367 43.8915 267.248 44.8318 266.939 45.9954C265.781 50.3598 263.523 53.8504 259.888 56.4482C259.78 56.5242 259.757 56.7236 259.734 56.7759C260.076 57.5832 260.394 58.3289 260.895 59.5019C257.082 58.9795 254.506 60.5657 252.65 63.1445C251.971 64.0896 251.854 65.7897 252.159 66.9628C252.308 67.5374 254.126 68.1596 255.007 67.9553C258.942 67.053 262.854 65.9797 266.7 64.7259C269.346 63.8616 269.937 62.5033 269.806 59.6586C269.693 57.2271 269.749 54.786 269.745 52.3449C269.735 49.2533 269.745 46.1663 269.745 43.0746H269.74ZM161.113 233.235C160.912 233.211 160.71 233.187 160.504 233.163C159.071 236.654 156.236 239.499 156.091 243.179C155.342 243.859 154.602 244.295 154.194 244.946C152.854 247.078 151.725 249.348 150.339 251.448C149.416 252.844 149.074 254.174 149.964 255.603C151.013 257.284 151.224 259.132 151.402 261.041C151.5 262.081 151.88 263.092 152.133 264.114C152.372 264.156 152.611 264.204 152.85 264.247C155.492 259.934 158.668 255.883 159.605 250.987C160.181 250.65 160.396 249.914 160.682 249.201C161.497 247.15 162.364 245.117 163.156 243.056C163.338 242.571 163.432 241.964 163.324 241.47C162.865 239.333 162.336 237.21 161.792 235.092C161.628 234.455 161.347 233.852 161.118 233.235H161.113ZM112.763 277.991C115.368 274.718 117.879 272.111 117.715 268.203C117.607 265.605 116.947 263.026 116.844 260.428C116.717 257.256 116.947 254.074 116.956 250.897C116.956 250.355 116.633 249.814 116.3 248.774C115.513 249.762 114.993 250.308 114.59 250.93C112.454 254.221 110.402 257.574 108.21 260.822C107.142 262.409 106.94 263.719 107.957 265.515C109.1 267.533 109.737 269.85 110.571 272.045C111.25 273.84 111.901 275.644 112.763 277.991ZM108.735 317.67C109.194 317.37 109.414 317.304 109.433 317.199C110.084 313.723 110.758 310.251 111.297 306.761C111.377 306.257 110.791 305.654 110.543 305.084C109.779 303.327 108.158 302.135 107.765 300.041C107.423 298.227 106.327 296.56 105.268 294.161C104.158 296.241 103.539 297.68 102.682 298.953C100.321 302.468 100.551 305.773 103.094 309.083C103.816 310.023 104.176 311.234 104.842 312.227C106.088 314.089 107.442 315.874 108.73 317.67H108.735ZM111.133 303.992C111.363 303.916 111.592 303.84 111.826 303.764C113.339 301.043 114.932 298.364 116.333 295.586C116.923 294.413 115.19 291.055 114.005 290.676C115.457 287.712 113.527 285.575 112.262 282.54C110.327 285.646 108.617 288.168 107.179 290.837C106.701 291.72 106.589 293.098 106.898 294.057C107.498 295.909 108.561 297.6 109.348 299.395C110.009 300.9 110.547 302.463 111.138 303.997L111.133 303.992ZM134.341 276.817C134.055 276.765 133.769 276.713 133.479 276.661C132.275 278.071 131.141 279.548 129.853 280.873C128.03 282.754 128.475 285.076 128.41 287.313C128.391 287.954 128.574 288.667 128.368 289.232C127.407 291.825 127.375 294.456 127.703 297.22C129.909 294.831 131.591 292.2 133.582 289.835C135.605 287.432 135.994 285.038 134.528 282.279C134.397 282.032 134.556 281.633 134.542 281.305C134.481 279.809 134.406 278.313 134.336 276.817H134.341ZM131.984 194.083C135.249 190.17 136.027 185.677 135.966 181.754C135.91 178.097 133.39 174.483 131.956 170.85C131.675 170.912 131.399 170.978 131.118 171.04C130.954 177.618 130.747 184.19 130.687 190.768C130.677 191.713 131.403 192.663 131.98 194.083H131.984ZM104.879 258.804L105.722 258.89C106.828 257.294 107.924 255.693 109.044 254.107C111.405 250.769 113.785 247.444 116.141 244.105C117.645 241.973 117.565 240.658 115.424 239.019C111.78 244.509 108.079 249.937 104.593 255.508C104.13 256.249 104.757 257.688 104.879 258.804ZM136.903 184.333C136.013 189.296 134.12 193.546 134.289 198.689C137.535 196.187 137.756 192.644 139.133 189.718C140.117 187.634 139.367 186.114 136.908 184.328L136.903 184.333ZM246.917 329.4C248.65 327.344 247.474 324.494 244.082 322.523C242.293 324.442 243.45 327.249 246.917 329.4ZM114.956 320.291C114.595 321.892 111.203 323.449 114.956 325.544V320.291Z" fill="black"/>
<path d="M240.714 88.861C241.211 89.7966 241.81 90.6942 242.19 91.6773C245.609 100.563 247.666 109.695 248.303 119.284C248.898 128.246 250.041 137.231 251.807 146.026C252.697 150.462 255.461 154.527 257.471 158.711C257.822 159.443 258.586 160.041 259.284 160.521C262.418 162.691 265.594 164.795 269.44 167.378C268.274 162.729 267.768 158.331 266.091 154.456C260.483 141.505 257.846 127.813 255.339 114.036C253.676 104.88 251.695 95.7805 249.863 86.6527C249.774 86.2015 249.746 85.7314 250.2 85.1282C251.119 88.0157 252.332 90.8509 252.903 93.8049C255.054 104.904 256.881 116.059 259.045 127.153C260.525 134.747 262.099 142.313 265.177 149.503C267.622 155.221 269.745 161.086 270.279 167.435C270.4 168.879 271.759 170.242 272.626 171.591C274.659 174.778 276.865 177.855 278.777 181.113C284.862 191.499 288.834 202.726 290.338 214.675C292.095 228.628 293.168 242.671 294.798 256.648C295.065 258.951 296.648 261.103 297.646 263.316C298.213 264.574 298.827 265.804 299 267.272C297.801 265.353 296.601 263.439 295.402 261.521C295.187 261.597 294.971 261.668 294.756 261.744C295.262 287.199 291.968 312.664 295.74 338.105C295.496 338.191 295.252 338.271 295.009 338.357C294.737 337.915 294.269 337.488 294.226 337.027C294.1 335.612 294.208 334.182 294.095 332.762C292.423 311.31 292.751 289.821 292.868 268.336C292.868 267.861 292.821 267.371 292.919 266.916C294.133 261.084 292.301 256.05 289.017 251.372C282.342 241.85 280.079 231.036 279.676 219.567C279.292 208.667 278.603 197.773 277.769 186.897C277.559 184.176 276.772 181.232 275.39 178.924C269.674 169.378 261.809 162.311 251.203 158.645C249.769 158.151 248.505 157.154 246.781 156.721C247.989 158.141 249.118 159.647 250.421 160.972C253.822 164.42 255.944 168.57 257.349 173.182C259.883 181.507 262.076 189.899 263.177 198.571C265.519 217.002 267.688 235.462 270.433 253.832C271.698 262.314 274.139 270.615 276.064 278.993C276.72 281.837 277.338 284.696 278.163 287.494C279.667 292.627 281.316 297.714 282.894 302.824C283.044 303.308 283.114 303.816 282.772 304.481C281.957 302.553 280.969 300.682 280.355 298.692C277.854 290.557 275.375 282.412 273.057 274.224C270.012 263.472 268.442 252.445 267.046 241.365C264.798 223.556 262.324 205.78 259.855 187.999C259.499 185.454 258.633 182.975 257.958 180.282C256.384 185.278 254.885 190.022 253.386 194.771C253.175 194.7 252.96 194.629 252.749 194.558C253.784 190.398 254.623 186.176 255.902 182.091C257.555 176.834 256.393 172.099 253.925 167.511C250.903 161.893 246.368 157.671 241.248 154.109C236.676 150.927 234.507 146.791 235.453 141.163C235.912 138.447 236.437 135.74 236.934 133.033C237.135 133.047 237.341 133.066 237.543 133.08C237.383 135.987 237.243 138.888 237.065 141.795C236.732 147.233 239.904 153.179 244.64 155.159C248.336 156.702 252.229 157.757 256.037 159.015C256.159 159.053 256.323 158.958 256.881 158.825C248.729 147.826 249.142 134.643 247.53 121.981C247.282 121.991 247.029 121.996 246.781 122.005C246.589 124.665 246.382 127.32 246.204 129.979C246.022 132.71 245.862 135.445 245.146 138.152C245.417 132.639 245.347 127.087 246.026 121.625C247.352 111.011 245.263 101.047 241.398 91.3068C241.084 90.5185 240.958 89.6589 240.747 88.8325L240.7 88.8705L240.714 88.861ZM279.667 186.109C279.395 186.171 279.123 186.233 278.847 186.29C278.866 186.731 278.875 187.178 278.912 187.619C279.493 195.085 280.191 202.546 280.622 210.021C280.922 215.221 280.421 220.498 281.063 225.636C281.69 230.661 283.016 235.661 284.614 240.477C285.663 243.645 287.687 246.49 289.364 249.424C290.296 251.058 291.402 252.592 292.427 254.169C292.62 254.093 292.807 254.012 292.999 253.936C292.488 237.466 289.762 221.248 287.691 204.958L287.017 204.996C286.703 209.589 286.384 214.181 286.07 218.774C287.073 207.19 286.099 196.077 279.671 186.109H279.667Z" fill="black"/>
<path d="M225.119 149.45C223.381 154.841 221.713 160.259 219.863 165.612C219.31 167.212 218.256 168.637 217.708 169.639C223.835 166.657 230.464 163.437 237.243 160.136C235.645 158.369 234.099 156.655 232.558 154.945C232.642 154.902 232.731 154.86 232.816 154.812C237.126 157.975 241.595 160.948 245.713 164.349C252.955 170.332 254.838 177.898 251.714 186.893C249.156 194.259 246.111 201.496 245.211 209.37C244.799 212.956 244.56 216.494 245.834 220.588C246.879 215.748 247.797 211.493 248.711 207.238C248.79 207.257 248.87 207.271 248.95 207.29C248.022 213.735 247.09 220.175 246.134 226.8C244.588 223.684 244.251 220.365 244.148 217.045C243.895 209.047 245.258 201.325 248.074 193.826C249.371 190.369 250.313 186.76 251.283 183.184C252.889 177.261 251.053 172.284 246.935 168.029C245.624 166.676 244.082 165.531 242.897 164.078C240.99 161.741 238.775 161.774 236.147 162.425C230.502 163.826 225.653 166.837 220.8 169.853C218.64 171.192 216.026 172.261 214.574 174.193C211.009 178.943 209.688 184.513 210.69 190.521C210.756 190.91 210.793 191.305 210.803 191.699C210.803 191.841 210.695 191.984 210.423 192.63C208.849 188.446 209.791 184.694 210.386 180.989C208.47 183.174 206.563 185.354 204.657 187.529L204.699 187.572C206.441 184.817 208.189 182.068 209.917 179.308C210.353 178.615 210.728 177.884 211.365 176.758C208.376 178.985 205.814 180.89 203.256 182.794L203.303 182.842C205.13 181.065 206.886 179.204 208.793 177.523C214.902 172.123 219.488 165.778 221.517 157.671C222.144 155.164 223.161 152.756 224.079 150.334C224.22 149.963 224.791 149.764 225.152 149.474C225.142 149.465 225.114 149.436 225.114 149.436L225.119 149.45Z" fill="black"/>
<path d="M225.691 114.373C227.859 116.306 230.028 118.234 232.343 120.296C231.87 117.712 231.401 115.143 230.933 112.573L230.881 112.621C231.663 115.1 233.031 117.56 233.125 120.063C233.444 128.569 233.134 137.074 230.572 145.347C231.335 139.064 232.98 132.772 230.633 126.564C230.422 126.583 230.206 126.598 229.996 126.617L231.017 132.173C230.914 132.225 230.815 132.278 230.712 132.33C230.384 131.822 230.052 131.314 229.485 130.44C227.977 136.989 226.538 143.21 225.114 149.441C225.124 149.455 225.152 149.484 225.161 149.493C225.386 147.584 225.517 145.651 225.84 143.752C226.646 139.007 227.499 134.267 228.412 129.547C228.717 127.961 228.155 127.106 226.679 126.788C223.109 126.023 219.535 125.282 215.965 124.256C219.226 124.608 222.486 124.959 225.747 125.311C225.789 125.178 225.836 125.04 225.878 124.902C224.098 124.256 222.332 123.553 220.533 122.969C215.572 121.359 210.33 120.277 206.961 115.679C205.884 114.212 205.027 112.578 204.333 110.745C208.404 120.424 217.755 120.467 225.48 123.411C225.602 123.216 225.723 123.026 225.845 122.832C224.571 121.981 223.273 121.165 222.027 120.267C219.048 118.12 215.975 116.088 213.192 113.708C211.819 112.535 210.943 110.726 209.95 109.14C208.418 106.689 206.99 104.172 205.5 101.698C204.005 99.2141 202.445 96.7636 201.003 94.2466C200.707 93.7289 200.811 92.9738 200.731 92.3279C201.003 92.2187 201.27 92.1142 201.541 92.005C203.659 95.4196 205.542 99.0242 207.983 102.182C209.486 104.13 211.641 105.853 213.867 106.87C218.223 108.855 222.472 110.864 225.784 114.473C220.828 111.685 215.97 108.679 210.109 107.577C212.016 110.375 213.904 113.243 216.438 115.285C220.42 118.5 224.838 121.16 229.429 124.299C229.429 122.96 229.841 121.416 229.34 120.286C228.408 118.187 226.941 116.335 225.7 114.378L225.691 114.373Z" fill="black"/>
<path d="M166.205 107.497C165.212 108.233 164.481 108.655 163.9 109.23C161.483 111.628 159.113 114.079 156.724 116.506C156.56 116.349 156.4 116.192 156.236 116.036C160.846 110.641 165.456 105.25 170.178 99.7223C172.103 100.477 172.394 97.5472 174.427 96.9725C172.595 99.5608 171.091 102.121 169.091 104.177C168.655 104.623 168.182 105.022 168.117 105.587C167.47 111.13 166.875 116.677 166.21 122.77V107.497H166.205Z" fill="black"/>
<path d="M160.776 108.841C161.586 106.533 162.397 104.224 163.207 101.916C158.331 103.826 156.513 109.463 151.702 110.389C157.689 104.49 163.933 98.3403 169.78 92.5844C167.049 97.7752 164.088 103.408 161.127 109.04L160.776 108.845V108.841Z" fill="black"/>
<path d="M171.466 143.827C167.33 131 168.248 105.545 172.89 102.482C167.465 116.211 169.213 130.008 171.466 143.827Z" fill="black"/>
<path d="M240.756 88.823C236.339 81.7896 232.019 74.6896 227.48 67.7369C223.236 61.2353 217.928 55.6646 212.063 50.5403C212.452 50.7682 212.869 50.9582 213.225 51.2289C217.933 54.8192 222.097 58.97 225.461 63.8806C229.991 70.4961 234.484 77.1402 238.845 83.8649C239.787 85.3182 240.11 87.1846 240.714 88.861L240.761 88.823H240.756Z" fill="black"/>
<path d="M176.83 42.2198C176.151 42.0393 175.71 41.9254 175.27 41.8114L175.846 42.1913C177.228 40.5006 178.446 38.6295 180.039 37.181C181.585 35.7752 183.52 34.8064 185.281 33.6429C185.478 33.8993 185.679 34.151 185.876 34.4075C182.423 37.8886 178.971 41.3744 175.523 44.8556C175.336 44.6751 175.153 44.4946 174.966 44.3094C175.542 43.6683 176.113 43.0271 176.835 42.2198H176.83Z" fill="black"/>
<path d="M155.585 59.8676C151.097 66.2124 146.61 72.562 142.407 78.5079C142.942 75.1883 150.446 63.8758 155.585 59.8676Z" fill="black"/>
<path d="M186.85 107.136C189.731 106.893 192.612 106.651 195.601 106.4C195.367 104.961 195.217 104.063 195.072 103.165C197.447 102.8 199.489 105.203 201.078 110.968C200.572 110.227 199.995 109.525 199.569 108.741C198.239 106.276 197.606 106.134 195.03 107.335C193.517 108.038 192.018 109.392 190.186 107.454C189.638 106.874 187.984 107.364 186.841 107.364C186.841 107.288 186.85 107.216 186.85 107.14V107.136Z" fill="black"/>
<path d="M133.366 96.4549C136.308 91.4778 139.25 86.496 142.192 81.5189C142.473 81.6661 142.759 81.8086 143.04 81.9558C142.169 84.4538 141.297 86.9566 140.243 89.9676V86.6004C137.962 90.2763 135.933 93.5437 133.905 96.8063C133.727 96.6923 133.544 96.5736 133.366 96.4596V96.4549Z" fill="black"/>
<path d="M241.684 66.0177C244.317 71.6597 246.954 77.3016 249.587 82.9436C249.301 83.0766 249.011 83.2096 248.725 83.3425C245.844 77.7956 243.53 72.0016 241.735 65.9797L241.688 66.0177H241.684Z" fill="black"/>
<path d="M184.086 96.6401C183.782 97.1103 183.482 97.5852 183.29 97.8844C184.063 97.7134 184.869 97.5282 185.679 97.3477C185.721 97.5947 185.759 97.8369 185.801 98.0838C181.843 99.2331 177.889 100.378 173.93 101.527C173.869 101.465 173.808 101.399 173.743 101.337C177.097 99.6368 180.451 97.9319 183.805 96.2317C183.899 96.3694 183.993 96.5071 184.086 96.6449V96.6401Z" fill="black"/>
<path d="M137.962 103.066C135.755 108.181 133.554 113.295 131.347 118.405C131.08 118.287 130.813 118.173 130.546 118.054C132.771 112.925 134.992 107.796 137.217 102.667C137.465 102.8 137.714 102.933 137.962 103.066Z" fill="black"/>
<path d="M157.023 62.9545C160.284 60.219 163.544 57.4835 166.805 54.748C165.119 59.2739 160.72 60.7414 157.6 63.6479C157.408 63.4152 157.216 63.1872 157.023 62.9545Z" fill="black"/>
<path d="M230.928 112.573C229.204 109.368 227.429 106.191 225.78 102.947C225.189 101.788 224.904 100.473 224.482 99.2284C224.683 99.1334 224.885 99.0432 225.086 98.9482C227.016 103.503 228.946 108.062 230.876 112.621L230.928 112.573Z" fill="black"/>
<path d="M187.075 71.7499C184.611 76.3376 180.432 78.0235 176.802 80.4076L176.432 79.9517C179.861 77.3111 183.285 74.6706 187.075 71.7499Z" fill="black"/>
<path d="M166.444 50.0369C167.269 48.5789 167.826 46.8265 168.993 45.7389C170.131 44.6751 171.888 44.2904 173.644 43.4831C171.382 45.9431 169.264 48.2417 167.147 50.5403C166.913 50.3741 166.678 50.2031 166.444 50.0369Z" fill="black"/>
<path d="M216.963 84.2971C219.057 88.1534 221.156 92.0097 223.25 95.866C222.983 96.0132 222.72 96.1652 222.453 96.3124C220.359 92.4894 218.27 88.6711 216.176 84.848C216.438 84.6628 216.701 84.4823 216.963 84.2971Z" fill="black"/>
<path d="M233.617 99.1192C230.839 96.6781 229.565 93.5199 230.08 89.6494C231.261 92.8076 232.436 95.961 233.617 99.1192Z" fill="black"/>
<path d="M195.864 95.2961C197.962 96.4739 200.548 101.062 200.904 104.642C199.344 101.75 197.784 98.8532 195.864 95.2961Z" fill="black"/>
<path d="M169.433 34.4502C169.958 34.3457 170.478 34.2413 171.312 34.0798C169.227 36.6871 167.573 39.3228 164.172 39.8452C165.69 38.0975 167.18 36.3784 168.669 34.6639C168.922 34.5927 169.18 34.5215 169.433 34.4502Z" fill="black"/>
<path d="M188.209 64.479C186.106 66.9675 183.997 69.4608 181.894 71.9494C181.693 71.7689 181.491 71.5932 181.294 71.4127C183.346 68.9004 185.393 66.3881 187.445 63.8758C187.698 64.0753 187.956 64.2795 188.209 64.479Z" fill="black"/>
<path d="M158.035 96.1937C159.342 93.7811 161.01 91.7343 163.095 90.1196C163.371 90.3998 163.648 90.6799 163.919 90.9649C162.102 92.855 160.289 94.75 158.471 96.6401C158.326 96.4929 158.181 96.3409 158.035 96.1937Z" fill="black"/>
<path d="M149.505 48.6834C151.126 46.9927 152.742 45.302 154.363 43.6065C154.587 43.8108 154.812 44.0102 155.037 44.2144C153.515 45.9716 151.997 47.7335 150.474 49.4907C150.151 49.22 149.828 48.9493 149.505 48.6786V48.6834Z" fill="black"/>
<path d="M165.906 49.9704C163.835 51.6326 161.769 53.2995 159.698 54.9617C159.539 54.767 159.38 54.5675 159.221 54.3728C161.24 52.6821 163.259 50.9867 165.282 49.296C165.489 49.5192 165.699 49.7472 165.906 49.9704Z" fill="black"/>
<path d="M195.625 71.465C196.323 74.6754 197.025 77.8905 197.723 81.101C197.489 81.1484 197.26 81.2007 197.025 81.2482C196.36 78.0045 195.695 74.7656 195.03 71.5219C195.226 71.503 195.423 71.484 195.625 71.465Z" fill="black"/>
<path d="M140.271 92.3849C139.194 94.1183 139.011 96.5309 135.709 97.381C137.273 95.2201 138.468 93.5722 139.658 91.9195C139.864 92.0714 140.065 92.2282 140.271 92.3801V92.3849Z" fill="black"/>
<path d="M169.433 34.4502C169.18 34.5215 168.922 34.5927 168.669 34.6639C166.529 35.8607 164.383 37.0527 162.242 38.2495C162.153 38.0928 162.059 37.9408 161.97 37.7841C164.509 36.2121 167.053 34.6354 170.211 32.6835C169.761 33.7141 169.597 34.0798 169.438 34.4502H169.433Z" fill="black"/>
<path d="M204.661 187.543C202.961 189.98 201.26 192.416 199.56 194.852C199.297 194.634 199.03 194.42 198.768 194.202C200.75 191.993 202.727 189.79 204.708 187.581L204.661 187.539V187.543Z" fill="black"/>
<path d="M131.83 100.126C130.626 101.579 129.422 103.032 128.218 104.486C127.974 104.281 127.731 104.082 127.487 103.878C128.658 102.401 129.834 100.919 131.005 99.4421C131.282 99.6701 131.553 99.898 131.83 100.121V100.126Z" fill="black"/>
<path d="M178.001 38.3493C175.982 40.0352 173.968 41.7164 171.949 43.4023C171.822 43.2409 171.696 43.0841 171.565 42.9227C173.546 41.1987 175.528 39.4795 177.514 37.7556C177.678 37.9551 177.837 38.1498 178.001 38.3493Z" fill="black"/>
<path d="M133.441 78.1042C133.999 76.0146 134.556 73.925 135.114 71.8306C135.441 71.9351 135.765 72.0348 136.093 72.1393C135.395 74.1862 134.692 76.2378 133.994 78.2847C133.807 78.223 133.624 78.1612 133.436 78.0995L133.441 78.1042Z" fill="black"/>
<path d="M228.534 105.497C227.831 103.469 227.133 101.446 226.431 99.4184C226.693 99.3281 226.96 99.2379 227.222 99.1477C227.911 101.242 228.6 103.332 229.293 105.426C229.04 105.45 228.787 105.474 228.534 105.497Z" fill="black"/>
<path d="M152.868 19.2055C171.41 15.1735 189.488 11.2459 207.659 7.29467C203.57 9.38429 157.305 19.5427 152.868 19.2055Z" fill="black"/>
<path d="M151.407 19.8894C138.271 22.5821 125.14 25.2749 112.004 27.9629C124.957 24.3583 137.892 20.6587 151.407 19.8894Z" fill="black"/>
<path d="M123.88 197.44C124.212 200.171 124.545 202.897 124.878 205.628C124.587 205.661 124.301 205.699 124.011 205.732C123.753 202.997 123.491 200.257 123.233 197.521L123.88 197.44Z" fill="black"/>
</svg>
