<?xml version="1.0" encoding="utf-8"?>
<!-- Generator: Adobe Illustrator 23.1.0, SVG Export Plug-In . SVG Version: 6.00 Build 0)  -->
<svg version="1.1" id="Layer_1" xmlns="http://www.w3.org/2000/svg" xmlns:xlink="http://www.w3.org/1999/xlink" x="0px" y="0px"
	 viewBox="0 0 576 390" style="enable-background:new 0 0 576 390;" xml:space="preserve">
<style type="text/css">
	.st0{fill:#28282D;}
	.st1{fill:#FDFDFD;}
	.st2{fill:#414145;}
	.st3{fill:#FCFCFC;}
	.st4{fill:#F6F6F6;}
	.st5{fill:#F2F2F2;}
	.st6{fill:#323237;}
	.st7{fill:#303035;}
	.st8{fill:#313135;}
	.st9{fill:#333338;}
	.st10{fill:#3E3E42;}
	.st11{fill:#3B3B40;}
	.st12{fill:#68686B;}
	.st13{fill:#37373B;}
	.st14{fill:#3A3A3E;}
	.st15{fill:#424247;}
	.st16{fill:#7E7E81;}
	.st17{fill:#5B5B5F;}
	.st18{fill:#58585C;}
	.st19{fill:#505054;}
	.st20{fill:#38383C;}
	.st21{fill:#3C3C41;}
	.st22{fill:#444449;}
	.st23{fill:#5B5B5E;}
	.st24{fill:#727275;}
	.st25{fill:#545458;}
	.st26{fill:#6C6C6F;}
	.st27{fill:#59595D;}
	.st28{fill:#39393E;}
	.st29{fill:#828285;}
	.st30{fill:#747477;}
	.st31{fill:#767679;}
	.st32{fill:#66666A;}
	.st33{fill:#88888B;}
	.st34{fill:#6A6A6E;}
	.st35{fill:#919194;}
	.st36{fill:#6B6B6E;}
	.st37{fill:#717174;}
	.st38{fill:#323236;}
	.st39{fill:#36363A;}
	.st40{fill:#38383D;}
	.st41{fill:#36363B;}
	.st42{fill:#3D3D41;}
	.st43{fill:#616165;}
	.st44{fill:#3A3A3F;}
	.st45{fill:#737376;}
	.st46{fill:#5C5C60;}
	.st47{fill:#47474C;}
	.st48{fill:#616164;}
	.st49{fill:#4E4E53;}
	.st50{fill:#5A5A5E;}
	.st51{fill:#67676A;}
	.st52{fill:#57575A;}
	.st53{fill:#3D3D42;}
	.st54{fill:#727276;}
	.st55{fill:#35353A;}
	.st56{fill:#87878A;}
	.st57{fill:#69696D;}
	.st58{fill:#6B6B6F;}
	.st59{fill:#5D5D61;}
	.st60{fill:#4B4B4F;}
	.st61{fill:#69696C;}
	.st62{fill:#636367;}
	.st63{fill:#68686C;}
	.st64{fill:#2F2F33;}
	.st65{fill:#A8A8AA;}
	.st66{fill:#F9F9F9;}
	.st67{fill:#FBFBFC;}
	.st68{fill:#FAFAFB;}
	.st69{fill:#FBFBFB;}
	.st70{fill:#F0F0F1;}
	.st71{fill:#6C6C70;}
	.st72{fill:#49494D;}
	.st73{fill:#DDDDDE;}
	.st74{fill:#FAFAFA;}
	.st75{fill:#F5F5F5;}
	.st76{fill:#EFEFEF;}
	.st77{fill:#757579;}
	.st78{fill:#98989A;}
	.st79{fill:#67676B;}
</style>
<image style="display:none;overflow:visible;" width="576" height="390" xlink:href="Mega_A.png"  transform="matrix(1 0 0 1 0.2553 -0.2837)">
</image>
<g>
	<path class="st0" d="M311.565,329.141c5.419,6.099,10.837,12.198,16.256,18.297c0.429-0.27,0.858-0.54,1.287-0.81
		c-2.927-14.938-4.687-30.222-13.559-43.395c-0.477-1.062,0.063-1.194,0.935-1.023c1.178,1.606,2.34,3.225,3.556,4.801
		c0.163,0.212,0.601,0.213,1.25,0.419c-0.423-5.142-1.241-10.169-0.322-15.905c4.607,34.238,15.451,66.19,24.674,98.551
		c-5.331,0-10.662,0-15.994,0c-1.687-2.54-1.964-5.362-0.787-8.038c2.808-6.381,1.857-9.638-4.177-12.941
		c-1.307-4.164-1.633-8.783-5.998-12.158c-1.087,5.516-3.191,10.443-5.658,15.224c-0.738,1.431-0.476,2.886,0.372,4.253
		c1.527,2.463,3.052,3.004,4.659,0.073c0.876-1.597,1.527-3.331,2.593-4.804c1.002-1.386,1.782-3.371,4.187-2.481
		c1.144,3.828-0.707,6.859-2.965,9.506c-2.373,2.783-3.336,5.241-0.469,8.222c0.792,0.823,1.242,2.014,0.246,3.144
		c-7.33,0-14.661,0-21.991,0c-1.602-3.32,1.049-5.67,2.161-8.197c3.186-7.241,2.675-9.827-3.825-14.46
		c-2.104-2.138-2.225-5.444-4.472-7.526c-1.048-0.971-1.583-2.803-3.314-2.593c-2.113,0.256-1.997,2.297-2.421,3.82
		c-0.177,0.635-0.352,1.262-0.706,1.828c-0.554,0.636-1.409,0.839-2.02,1.38c-5.444,4.821-5.506,7.573-0.875,13.189
		c2.583,3.132,6.322,5.306,7.794,9.363c0.378,1.042,1.324,1.942,0.682,3.195c-7.997,0-15.994,0-23.99,0
		c-1.39-4.198-0.453-8.052,1.748-11.71c2.928-4.867,3.034-5.831-1.116-9.275c-3.477-2.885-6.598-5.957-9.054-9.746
		c-0.685-1.057-1.608-2.406-3.184-1.665c-1.233,0.579-1.192,2.004-0.971,3.105c0.521,2.601-0.537,3.807-2.653,5.495
		c-5.138,4.098-4.074,10.943,1.795,13.687c4.397,2.056,5.99,5.66,6.438,10.109c-6.331,0-12.662,0-18.992,0
		c-1.733-1.94-1.093-4.064-0.29-6.065c1.651-4.118,0.871-7.659-1.844-11.099c-2.249-2.85-4.242-5.91-6.387-8.849
		c-0.565-0.774-1.032-1.867-2.213-1.704c-1.17,0.162-1.571,1.281-1.63,2.223c-0.215,3.423-1.805,6.243-3.398,9.17
		c-1.903,3.496-0.226,6.654,1.542,9.781c1.129,1.997,3.715,3.617,2.225,6.542c-3.665,0-7.33,0-10.996,0
		c-1.116-4.721,1.079-10.127-3.437-14.664c-0.499,2.969-0.992,5.581-0.609,8.324c0.337,2.409,0.124,4.666-1.951,6.341
		c-1,0-1.999,0-2.999,0c-1.962-3.874-0.599-7.885-0.179-11.738c2.163-19.835,3.835-39.68,4.915-59.625
		c0.961-17.75-0.655-35.629,2.556-53.274c0.78-4.287-0.485-8.609-0.751-12.918c-0.749-12.155,1.286-24.235,1.086-36.381
		c-0.014-0.833,0.3-1.631,0.683-2.382c0.36-0.657,0.882-0.83,1.564-0.523c5.523,14.82,12.631,28.683,24.103,39.912
		c0.271,0.954-0.305,1.284-1.078,1.47c-3.59-0.688-5.271-3.848-7.665-6.046c-2.042-1.874-3.531-2.613-4.517,0.787
		c-1.665,5.741-3.586,11.411-4.639,17.318c-0.423,2.371-0.215,4.263,2.908,3.253c8.06-2.607,16.24-4.835,24.229-7.669
		c1.378-0.489,1.809-1.284,1.509-2.628c1.391-2.023,3.663-0.315,5.307-1.264c7.152-1.472,11.266-7.529,16.941-11.23
		c0.501-0.418,0.981-0.396,1.442,0.066c-3.389,3.797-2.731,8.257-2.146,12.738c0.963,7.383,1.856,14.776,2.779,22.164
		c-0.441,0.264-0.892,0.297-1.356,0.067c-3.475-5.456-2.469-11.897-3.856-17.817c-0.525-2.24-0.495-4.61-1.768-7.648
		c-1.099,2.597-0.82,4.596-0.642,6.574c1.494,16.609,7.333,31.396,16.782,45.262c12.962,19.023,27.159,37.005,42.094,54.458
		c0.617,0.721,1.109,1.699,2.396,1.787c-1.782-6.677-6.134-11.684-10.163-16.96c-4.408-5.772-10.212-10.512-13.071-17.446
		C310.29,329.586,310.596,328.987,311.565,329.141z"/>
	<path class="st0" d="M162.716,390.075c1.198-14.899,4.853-29.053,12.74-41.917c2.776-4.528,5.729-8.954,8.334-13.578
		c9.046-16.056,9.15-32.361,0.376-48.465c-5.869-10.772-12.384-21.192-18.61-31.77c-0.409-1.011,0.153-1.182,0.975-1.128
		c9.398,12.67,18.732,25.378,24.537,40.44c2.51-14.506-4.783-54.786-27.404-87.439c-0.488-1.054,0.045-1.168,0.904-0.981
		c21.22,27.52,30.036,59.073,29.958,94.87c7.695-8.722,15.739-15.274,15.197-27.277c-0.742-16.428-0.791-32.888-1.137-49.334
		c-0.193-2.89-1.463-5.883,0.813-8.538c3.542,3.95,2.204,9.108,3.352,13.651c0.445,1.761,0.463,3.605,0.402,5.433
		c-0.144,1.54-0.112,3.1-0.509,4.612c-1.062,5.128-0.746,10.311-0.149,15.415c0.896,7.66,0.683,15.232,0.063,22.909
		c-0.831,10.287-0.311,20.643-0.258,30.968c0.129,24.979-0.861,49.906-3.023,74.79c-0.233,2.682-0.433,5.343-2.579,7.338
		c-0.666,0-1.333,0-1.999,0c-2.224-3.459-0.125-7.454-1.373-11.034c-0.156-0.647-1.13,0.187-0.488,0.01
		c0.013-0.003,0.034,0.038,0.06,0.126c1.13,3.801,1.937,7.566-1.198,10.898c-8.996,0-17.993,0-26.989,0
		c-2.752-1.267-4.471-3.212-4.363-6.139c-0.292,1.825,1.431,4.206-0.635,6.139C167.38,390.075,165.048,390.075,162.716,390.075z"/>
	<path class="st1" d="M261.676,390.075c-0.797-2.861-3.356-4.747-4.133-7.809c-0.241-0.95-3.968-1.063-5.764-2.751
		c-3.341-3.14-2.75-13.547,1.218-15.743c0.436-0.241,1.529,0.705,2.484,1.184c-0.444-1.671-1.049-3.16-1.195-4.692
		c-0.182-1.909,0.588-3.821,2.166-4.783c2.081-1.268,2.925,1.097,3.737,2.202c3.296,4.49,7.05,8.511,11.426,11.92
		c2.886,2.249,3.614,4.796,0.995,7.446c-3.682,3.725-2.854,8.623-3.937,13.024C266.341,390.075,264.008,390.075,261.676,390.075z"/>
	<path class="st1" d="M298.685,367.19c5.899,1.738,8.623,8.953,5.143,13.552c-2.105,2.782-2.797,6.213-4.168,9.333
		c-2.332,0-4.665,0-6.997,0c-2.502-5.437-6.985-9.334-10.93-13.581c-2.935-3.159-3.77-5.774-0.605-9.128
		c1.107-1.174,1.861-2.706,2.654-4.143c0.898-1.627,1.842-0.554,2.798-0.174c2.706-0.422,3.375,1.974,4.739,3.412
		c1.194,1.5,1.509,4.653,4.649,2.434C296.7,368.044,297.623,367.506,298.685,367.19z"/>
	<path class="st1" d="M230.688,390.075c0.083-2.441-2.005-3.684-3.044-5.506c-1.296-2.274-3.734-4.476-2.97-7.126
		c1.666-5.773,3.936-11.377,6.087-17.001c0.657-1.716,1.699-1.089,2.501,0.046c3.719,5.268,7.508,10.49,11.1,15.844
		c1.302,1.94,0.717,4.39-0.123,6.237c-1.12,2.463-1.236,4.968-1.556,7.506C238.685,390.075,234.687,390.075,230.688,390.075z"/>
	<path class="st2" d="M385.627,390.075c-0.354-26.023-0.708-52.045-1.061-78.068c-0.044-3.228-0.899-6.064-2.987-8.702
		c-3.299-4.168-5.777-8.848-7.005-14.096c-0.581-1-0.565-1.832,0.649-2.33c4.178,3.464,4.777,9.192,8.357,12.946
		c0.247-0.531,0.313-1.336,0.898-1.894c0.457-0.233,0.884-0.199,1.276,0.142c0.591,6.74,2.958,12.911,6.033,18.856
		c0.441,1.065-0.091,1.241-0.989,1.082c-1.065-1.929-2.129-3.857-3.171-5.744c0,26.027,0,51.917,0,77.806
		C386.959,390.075,386.293,390.075,385.627,390.075z"/>
	<path class="st3" d="M324.725,368.938c1.822-1.36,2.97-0.16,4.148,1.06c3.626,3.756,3.457,7.211,0.76,12.473
		c-1.028,2.005-0.049,5.039,0.016,7.605c-2.666,0-5.331,0-7.997,0c-4.686-5.107-4.031-9.682,0.788-14.494
		c1.527-1.525,1.631-4.474,2.387-6.772L324.725,368.938z"/>
	<path class="st3" d="M213.695,390.075c1.587-5.729-0.444-11.79,1.489-17.566c5.917,4.653,7.218,9.828,4.508,17.566
		C217.694,390.075,215.694,390.075,213.695,390.075z"/>
	<path class="st4" d="M201.7,390.075c0.516-2.065,1.175-4.075,0.972-6.292c-0.193-2.105-0.041-4.241-0.041-7.213
		c3.586,4.69,0.691,9.397,2.068,13.505C203.699,390.075,202.7,390.075,201.7,390.075z"/>
	<path class="st5" d="M169.713,390.075c-0.359-2.139-0.395-4.271,0.163-6.719c1.707,2.372,3.271,4.545,4.835,6.719
		C173.045,390.075,171.379,390.075,169.713,390.075z"/>
	<path class="st6" d="M333.635,117.156c-2.085-3.057-3.984-6.22-8.691-4.993c-1.525,0.397-2.665-1.093-3.302-2.537
		c-5.479-12.419-15.349-20.19-27.259-25.817c-0.28-0.132-0.48-0.434-0.718-0.656c0.172-0.149,0.345-0.298,0.516-0.449
		c0.937-0.369,1.779-0.27,2.48,0.51c3.694,2.32,6.631,0.081,9.293-1.91c3.764-2.815,7.202-6.065,10.78-9.129
		c1.033,1.423,0.525,2.979,0.394,4.508c-1.833,2.746-5.037,3.704-7.455,5.703c-3.809,3.149-3.918,3.812-0.295,7.328
		c2.388,2.317,5.235,4.101,7.564,6.497c1.004,1.033,2.339,1.556,3.606,0.638c4.277-3.1,9.03-5.826,10.175-11.669
		c0.247-0.917,0.691-1.743,1.172-2.549c0.915-2.155,3.085-4.532-1.093-5.727c-0.675-0.193-1.216-0.667-1.142-1.387
		c0.152-1.487,2.974-3.192-0.118-4.374c-3.042-1.163-6.227-2.372-9.401-0.061c-1.013,0.737-2.013,1.804-3.527,1.224
		c0.979-4.877,4.399-5.412,8.615-5.206c11.887,0.581,14.272,3.887,10.881,15.348c-1.652,5.581-4.23,10.437-9.411,13.548
		c-0.842,0.506-1.592,1.2-2.288,1.904c-0.898,0.908-2.425,1.684-1.934,3.195c0.683,2.105,2.575,0.613,3.881,0.949
		c0.88-0.442,1.327-0.004,1.601,0.786c0.109,1.916-2.977,3.505-1.049,5.365c1.616,1.559,3.767,0.084,5.635-0.413
		c7.731-2.059,12.686-7.525,16.759-13.944c2.672-4.211,4.411-8.892,6.152-13.549c0.465-1.243,0.807-2.536,0.669-3.886
		c-0.141-1.38-0.596-2.693-1.986-3.198c-1.796-0.653-2.189,0.94-2.809,2.06c-0.481,0.869-0.897,1.784-1.9,2.203
		c-0.845-0.129-1.357-0.484-0.98-1.441c0.54-3.491,2.182-6.903,0.363-10.636c6.944,1.781,11.19,7.625,11.844,15.864
		c-2.879,0.946-3.043,3.769-3.863,5.966c-4.076,10.929-11.089,19.328-21.114,25.246c-1.198-0.668-2.692-2.072-2.393,0.968
		C333.411,114.674,333.52,115.916,333.635,117.156z"/>
	<path class="st7" d="M348.559,208.191c2.802,3.466,6.168,6.25,10.094,8.358c1.819,0.178,1.182-2.141,2.58-2.693
		c1.63,1.542,1.402,4.184,3.406,5.291c5.545,11.337,12.4,22.104,15.108,34.678c0.698,2.573-0.18,2.997-2.317,1.708
		c-2.266-4.118-2.145-9.06-4.552-12.989c-0.06,4.417,0.278,9.015-0.161,13.607c-0.33,0.957-0.533,2.044-1.933,1.913
		c-0.385-4.812-0.879-9.617-1.134-14.436c-0.869-16.394-12.565-30.259-29.68-34.323c11.614,10.84,12.367,25.1,14.494,38.827
		c1.272,8.209,2.194,16.473,3.274,24.712c0.166,1.221,1.33,2.73-0.936,3.251c-2.313-13.801-4.627-27.602-7.15-42.653
		c-1.049,2.346-1.566,3.502-2.083,4.658c-0.952,0.196-1.459-0.032-1.061-1.118c5.199-14.089-3.168-22.674-12.681-30.554
		c-7.443-6.165-9.468-13.221-5.256-21.619c0.067,1.293,0.153,2.264,0.161,3.236c0.118,13.941,1.948,16.355,15.381,20.275
		c0.796,0.232,1.582,0.499,2.372,0.75C347.144,208.701,347.479,207.571,348.559,208.191z"/>
	<path class="st8" d="M216.868,198.03c-0.12-3.702-0.906-7.241-3.05-10.309c-1.95-2.791-3.114-5.99-4.904-8.957
		c-0.148,11.591,1.149,22.978,2.745,34.424c-1.391,0.2-0.722-1.91-1.565-1.484c-1.49,0.753-0.06,2.356-0.6,3.484
		c-1.601,2.627-0.239,5.577-0.909,8.307c-1.151-6.574-0.796-13.226-0.835-19.842c-0.026-4.41-1.701-7.574-5.211-10.103
		c-6.297-4.536-12.488-9.221-18.481-14.227c8.551,2.324,14.731,8.667,22.498,13.706c0-7.948,0.66-15.386-0.141-22.664
		c-1.554-14.127,2.156-26.87,8.469-39.169c0.308-0.399,0.61-0.374,0.905,0.015c-1.766,8.562-3.782,17.094-3.123,25.947
		c-0.473,0.325-0.916,0.289-1.329-0.104c-1.708-3.124-2.151-6.427-1.376-8.688c-0.602,11.319-2.583,24.049,5.644,35.724
		c1.253-3.556,0.743-6.56-0.858-9.535c-1.505-2.797-2.74-5.684-1.94-8.998c0.317-0.724,0.69-1.371,1.65-1.213
		c0.701,2.31,1.579,4.584,2.063,6.938c0.773,3.754,2.24,3.229,4.208,0.911c0.913-0.262,1.353-0.056,0.96,0.972
		c-3.663,7.59-3.507,15.802-3.895,23.925C218.202,198.109,217.745,198.277,216.868,198.03z"/>
	<path class="st9" d="M143.842,227.078c-21.888-24.165-38.324-51.627-49.67-82.164c-0.228-0.613-0.325-1.277-0.441-1.925
		c-0.022-0.123,0.157-0.282,0.642-1.081c12.327,31.058,29.497,58.758,50.375,84.204
		C145.118,227.064,144.634,227.215,143.842,227.078z"/>
	<path class="st10" d="M337.738,114.164c8.488-2.784,14.297-8.626,18.98-16.022c3.358-5.304,5.011-10.781,3.889-17.004
		c2.57,6.404,2.374,13.078,2.034,19.792c-0.159,3.143,0.045,6.303,0.006,9.454c-0.035,2.828-0.72,5.286-4.023,5.929
		c-0.284-0.403-0.388-0.85-0.344-1.337c1.945-4.797,0.785-9.821,1.251-15.776c-2.564,3.856-5.298,6.452-6.563,10.033
		c-0.861,2.439-2.886,3.474-4.87,4.689c-1.879,1.152-3.476,2.505-0.544,4.338c0.586,0.412,1.135,0.846,0.906,1.689
		c-2.621,0.748-4.72,0.223-6.275-2.228C341.14,116.073,339.674,114.783,337.738,114.164z"/>
	<path class="st11" d="M134.766,92.325c17.077-4.688,34.352-8.337,51.848-10.822c0.081,0.409,0.161,0.818,0.242,1.228
		c-16.953,3.552-33.905,7.105-50.858,10.657C134.929,93.796,134.623,93.321,134.766,92.325z"/>
	<path class="st12" d="M252.722,68.339c18.63-3.804,37.102-8.301,55.668-12.431c-17.837,5.765-35.967,10.339-54.459,13.475
		C252.858,69.81,252.577,69.321,252.722,68.339z"/>
	<path class="st13" d="M377.781,255.128c1.558,0.929,1.881-0.006,1.965-1.302c4.517,14.408,4.73,29.4,6.006,44.248
		c-0.33,0.012-0.66,0.023-0.99,0.033c-2.373-2.096-2.312-5.019-2.546-7.789c-0.855-10.122-3.091-20.102-2.736-29.517
		c0.313,0.668,0.432,2.639-1.062,2.983c-2.022,0.466-1.918-1.821-2.06-3.145C376.15,258.688,375.999,256.622,377.781,255.128z"/>
	<path class="st14" d="M349.64,177.411c-3.383-10.52-4.408-21.548-6.947-32.25c-0.455-1.92-0.805-3.865-1.203-5.799
		c-0.448-1.048,0.074-1.234,0.968-1.09c4.214,12.353,6.183,25.183,8.014,38.037C350.517,176.631,349.931,177.042,349.64,177.411z"/>
	<path class="st15" d="M293.666,83.152c-0.493,0.02-0.994,0.103-1.48,0.05c-7.35-0.799-7.981-0.22-7.608,7.028
		c-0.53,0.695-0.077,2.249-1.721,1.969c-0.173-12.71-0.561-13.023-15.831-12.811c-0.958,0.116-2.217,0.93-2.292-0.992
		c6.904-2.005,13.477-0.279,20.049,1.709c1.895,0.573,3.879,0.853,5.823,1.267c1.367,0.06,3.245-0.692,3.023,1.899L293.666,83.152z"
		/>
	<path class="st16" d="M252.722,68.339c0.403,0.348,0.806,0.696,1.209,1.044c-16.07,3.266-32.139,6.534-48.215,9.771
		c-0.231,0.046-0.539-0.291-1.845-1.052C220.735,74.731,236.729,71.535,252.722,68.339z"/>
	<path class="st17" d="M134.766,92.325c0.411,0.354,0.821,0.708,1.232,1.063c-13.091,4.132-26.477,7.395-39.006,13.189
		c-0.458,0.011-0.642-0.221-0.588-0.663c4.716-3.872,10.56-5.181,16.144-7.061C119.867,96.387,127.21,93.989,134.766,92.325z"/>
	<path class="st18" d="M91.873,112.421c-1.842,8.619,0.606,17.091,0.935,25.645c-3.509-8.749-6.153-17.549-1.967-26.837
		C91.773,111.117,92.371,111.295,91.873,112.421z"/>
	<path class="st19" d="M171.591,129.968c-5.224,2.136-10.445,4.283-15.674,6.405c-3.481,1.413-4.088,3.549-1.793,6.559
		c2.693,3.531,5.328,7.106,7.472,11.07c-3.777-3.884-7.687-7.684-10.038-12.665c-1.521-3.222,0.732-5.174,3.259-6.245
		c5.18-2.196,10.519-4.021,15.792-5.998C171.656,128.577,171.748,129.132,171.591,129.968z"/>
	<path class="st20" d="M215.79,131.212c0,0-0.453,0.003-0.453,0.003l-0.452-0.018c1.873-5.939,3.746-11.878,5.619-17.817
		c-0.206-1.556-3.044,0.372-2.639-1.993c3.583-1.27,5.595-4.822,9.071-6.247C223.221,113.831,219.506,122.521,215.79,131.212z"/>
	<path class="st21" d="M165.24,157.992c3.87,4.874,7.9,9.633,11.521,14.685c1.26,1.759-2.905,3.189-1.181,5.768
		C172.009,171.624,168.86,164.814,165.24,157.992z"/>
	<path class="st22" d="M327.625,102.965c-0.422-0.307-0.844-0.614-1.266-0.921c10.806-2.318,14.487-11.686,19.516-19.72
		c0.983-0.101,1.272,0.566,1.479,1.33c-2.238,7.88-6.58,14.234-13.773,18.346C331.839,102.995,329.875,104.329,327.625,102.965z"/>
	<path class="st23" d="M264.734,78.396c0.764,0.331,1.528,0.661,2.292,0.992c-10.004,1.933-18.675,6.945-27.39,11.857
		C246.446,83.922,255.346,80.683,264.734,78.396z"/>
	<path class="st24" d="M357.443,205.416c-2.849-7.559-5.498-15.18-7.3-23.073c-0.295-1.295-0.981-2.544,0.499-3.546
		c2.583,8.483,5.167,16.965,7.75,25.448C358.156,204.7,358.113,205.313,357.443,205.416z"/>
	<path class="st25" d="M357.443,205.416c0.317-0.39,0.633-0.781,0.95-1.171c2.082,4.968,4.164,9.935,6.246,14.903
		c-0.604-0.173-1.537-0.161-1.754-0.55c-0.967-1.735-1.691-3.662-4.233-2.049C361.147,212.524,357.214,209.196,357.443,205.416z"/>
	<path class="st26" d="M342.458,138.272c-0.323,0.363-0.645,0.726-0.968,1.09c-2.246-6.464-5.405-12.604-6.882-19.341
		C338.391,125.603,340.489,131.91,342.458,138.272z"/>
	<path class="st27" d="M166.531,253.218c-0.325,0.376-0.65,0.752-0.975,1.128c-3.366-4.54-6.733-9.079-10.099-13.619
		c0.342-0.267,0.684-0.533,1.025-0.8C159.832,244.357,163.181,248.787,166.531,253.218z"/>
	<path class="st28" d="M333.288,55.419c-5.281-0.907-9.356-1.607-13.431-2.308C324.202,51.86,328.429,51.357,333.288,55.419z"/>
	<path class="st29" d="M171.591,129.968c-0.327-0.291-0.655-0.583-0.982-0.874c4.119-2.306,8.651-3.47,13.431-4.112
		C179.89,126.644,175.741,128.306,171.591,129.968z"/>
	<path class="st30" d="M390.797,318.012c0.33-0.361,0.659-0.721,0.989-1.082c2.077,2.948,3.837,6.015,4.07,10.751
		C392.893,324.377,391.872,321.18,390.797,318.012z"/>
	<path class="st31" d="M239.708,91.182c-2.366,3.795-6.053,6.333-9.06,9.52C232.121,96.057,235.561,93.283,239.708,91.182z"/>
	<path class="st32" d="M164.568,205.238c-0.301,0.327-0.603,0.654-0.904,0.981c-2.173-2.796-4.346-5.592-6.52-8.387
		C160.597,199.45,162.701,202.235,164.568,205.238z"/>
	<path class="st33" d="M358.746,115.397c0.102,0.324,0.062,0.63-0.121,0.916c-3.031,2.21-6.703,2.629-10.164,3.637
		c-0.329-0.325-0.657-0.65-0.986-0.976C350.581,115.73,354.393,114.711,358.746,115.397z"/>
	<path class="st34" d="M143.842,227.078c0.302-0.322,0.604-0.644,0.906-0.966c2.133,2.425,4.267,4.85,6.4,7.275
		c-0.334,0.327-0.667,0.654-1.001,0.981C148.045,231.938,145.944,229.508,143.842,227.078z"/>
	<path class="st9" d="M188.996,81.898c2.833-2.074,6.213-1.925,10.742-2.802C195.704,81.859,192.235,81.289,188.996,81.898z"/>
	<path class="st35" d="M217.865,111.387c0.409,1.287,2.687,0.1,2.639,1.993c-2.831-1.002-5.362,1.274-8.451,0.091
		C213.99,112.776,215.928,112.081,217.865,111.387z"/>
	<path class="st36" d="M91.873,112.421c-0.344-0.397-0.688-0.795-1.031-1.192c1.358-2.291,3.004-4.281,5.562-5.315
		c0.245,0.177,0.441,0.398,0.588,0.663C94.957,108.237,93.231,110.168,91.873,112.421z"/>
	<path class="st37" d="M346.693,83.284c-0.273-0.32-0.545-0.641-0.818-0.961c0.859-2.099,1.717-4.198,2.576-6.298
		c0.312,0.364,0.625,0.727,0.937,1.091C350.251,79.942,349.601,82.107,346.693,83.284z"/>
	<path class="st9" d="M326.643,212.14c1.547-1.076-0.005-2.663,0.507-4.159c0.76,0.463,1.319,0.768,1.84,1.127
		c13.405,9.237,19.964,13.471,12.813,34.77c-2.439,7.265-5.335,14.597-5.128,22.627c1.892-0.317,1.268-2.3,3.263-3.422
		c-0.746,4.93-1.4,9.246-2.053,13.562c-3.349-8.179-3.02-16.288-0.781-24.361c1.593-5.745,3.525-11.396,5.08-17.15
		c2.893-10.707-4.887-21.528-15.505-21.753C326.2,212.98,326.188,212.567,326.643,212.14z"/>
	<path class="st38" d="M315.716,171.882c1.404,0.801,2.808,1.602,4.233,2.416c1.168-1.671,0.626-2.935-0.175-4.278
		c-0.267-0.448-1.755-1.174-0.136-1.76c0.935-0.339,1.431,0.617,2.047,1.128c0.906,0.34,2.096-0.311,2.783,0.796
		c0.484,3.493,0.191,6.979-0.136,10.459c-0.326,3.477-0.712,6.949-1.126,10.946c-2.136-2.453-0.711-5.338-2.056-7.995
		c-1.603,5.409-3.1,10.46-4.598,15.51c-0.952,0.195-1.447-0.042-1.057-1.117c1.204-5.16,2.346-10.336,3.641-15.473
		c0.556-2.205,0.673-4.262-2.093-4.513c-2.926-0.265-4.534-2.16-6.333-3.97c-0.122-0.949,0.127-1.468,1.198-1.035
		c0.906,0.034,1.811,0.069,2.717,0.103C315.29,172.962,315.169,172.124,315.716,171.882z"/>
	<path class="st13" d="M356.802,276.097c1.062-0.867,0.719-2.14,0.936-3.251c1.934,12.121,3.63,24.287,5.877,36.35
		c1.73,9.29,4.15,18.451,6.264,27.669c0.311,0.955-0.057,1.291-1.003,1.102C361.256,318.045,359.092,297.058,356.802,276.097z"/>
	<path class="st39" d="M263.13,150.17c-2.887,4.908-5.076,9.451-6.158,14.575c-0.283-1.447-0.567-2.893-0.932-4.761
		c-2.849,2.216-5.368,4.176-9.079,7.062c2.48-5.015,5.406-8.299,5.876-13.019c-3.504,1.255-5.144,4.713-9.532,5.583
		c6.054-5.771,11.357-10.826,16.66-15.881c0.213,0.143,0.425,0.285,0.638,0.428c-1.875,3.554-3.75,7.109-5.792,10.979
		C258.552,155.285,259.581,151.325,263.13,150.17z"/>
	<path class="st7" d="M293.702,233.216c6.861-6.651,15.412-11.915,18.068-22.016c0.393-0.336,0.793-0.362,1.202-0.03
		c-0.499,2.194-0.997,4.389-1.67,7.351c2.767-0.981,4.959-1.758,7.15-2.535c1.092-0.444,1.278,0.111,1.135,1.029
		c-3.003,1.756-5.95,3.619-9.022,5.247c-6.435,3.411-9.267,8.734-8.836,15.921c0.058,0.972,0.008,1.951,0.008,3.707
		c-1.921-2.566-0.564-4.985-1.548-6.999c-1.904,0.367-2.252,2.354-3.587,3.221c-0.871,0.222-1.363,0.075-0.936-0.964
		c0.945-1.501,1.89-3.002,2.878-4.571c-2.025-0.962-2.557,1.266-3.899,1.555C293.734,234.443,293.5,234.054,293.702,233.216z"/>
	<path class="st40" d="M311.565,329.141c-0.311,0.342-0.623,0.684-0.934,1.025c-1.632,0.399-2.444-0.782-3.252-1.794
		c-7.354-9.215-15.115-18.114-21.867-27.797c-2.96-4.244-5.212-8.888-6.736-13.843c-0.46-1.495-1.495-3.115,0.074-4.626
		c0.297-0.029,0.595-0.03,0.892-0.001c6.711,16.115,17.753,29.34,28.53,42.742C309.403,326.252,310.469,327.708,311.565,329.141z"/>
	<path class="st41" d="M224.305,168.038c3.633-5.11,7.265-10.22,11.326-15.932c0,2.341,0,3.916,0,6.018
		c2.396-3.132,4.354-5.961,6.625-8.513c0.771-0.866,1.489-3.177,3.203-1.688c0.354,0.308,1.585,2.944-0.68,4.556
		c-4.47,3.182-8.1,7.337-11.384,11.864c-1.487-0.819,0.129-2.182-1.341-3.536c-2.376,2.536-4.789,5.11-7.201,7.684
		c0,0-0.457-0.006-0.457-0.006L224.305,168.038z"/>
	<path class="st7" d="M282.857,92.199c0.574-0.656,1.148-1.312,1.721-1.969c2.147,3.981,6.606,4.204,10.002,6.155
		c0.127,0.847,0.033,1.44-1.041,0.905c-0.164-0.01-0.329-0.021-0.493-0.031c-2.572-0.153-5.771-2.962-7.263-1.247
		c-1.738,1.997,1.564,4.449,2.576,6.728c2.006,4.519-3.002,0.354-2.867,2.418c-1.69,0.511-0.973-1.742-2.124-1.85
		c-0.566,0.06-1.497,1.783-1.568,0.283c-0.308-6.433-0.156-6.436-6.54-4.473c-0.458,0.141-0.958,0.145-1.439,0.213
		c-1.006,0.474-1.179-0.022-1.034-0.888C276.25,96.534,281.197,97.017,282.857,92.199z"/>
	<path class="st42" d="M324.468,170.183c-1-0.012-2.075,0.239-2.783-0.796c2.403-1.625,0.392-3.201-0.238-4.549
		c-3.532-7.561-7.225-15.046-10.863-22.557c-0.518-1.065,0.052-1.169,0.904-1.025C317.064,150.339,323.55,159.011,324.468,170.183z"
		/>
	<path class="st6" d="M300.876,160.097c-3.201-5.522-6.402-11.045-9.603-16.567c0.374-0.297,0.747-0.594,1.121-0.891
		c5.738,5.831,8.923,14.234,16.709,18.216c-1.815-0.613-3.631-1.226-5.446-1.839C302.213,158.045,302.235,160.847,300.876,160.097z"
		/>
	<path class="st20" d="M283.368,103.308c0.708,0.617,1.416,1.233,2.124,1.85c2.14,6.238-0.412,12.75,1.116,19.024
		c-0.333,0.383-0.608,0.345-0.823-0.115c-1.535-2.068-2.65-8.804-2.152-11.853C284.117,109.25,284.051,106.259,283.368,103.308z"/>
	<path class="st43" d="M338.504,191.16c-0.265,0.741-0.53,1.482-0.795,2.223c-0.901-6.858-1.67-13.629-0.215-20.397
		c4.752,1.329,1.781,5.243,2.636,7.875c-0.156,1.415,0.419,2.757,0.423,4.157C340.074,187.134,340.328,189.494,338.504,191.16z"/>
	<path class="st44" d="M339.838,180.943c-0.259-2.806,0.751-5.986-2.345-7.956c0.663-6.383-0.631-12.68-0.849-19.024
		c3.561,8.742,4.083,17.934,4.033,27.211C340.246,181.649,339.973,181.547,339.838,180.943z"/>
	<path class="st45" d="M263.413,154.139c-3.961,10.922-2.903,22.284-2.856,33.557C260.176,176.394,257.632,164.902,263.413,154.139z
		"/>
	<path class="st46" d="M293.54,97.29c0.347-0.302,0.694-0.603,1.041-0.905c8.877,3.93,15.952,10.043,21.631,17.848
		c-2.542-0.065-3.407-2.383-4.877-3.789C305.953,105.296,300.412,100.405,293.54,97.29z"/>
	<path class="st47" d="M219.243,152.655c4.51-6.49,9.021-12.981,13.531-19.471c0.42,0.285,0.84,0.57,1.26,0.854
		c-4.65,6.397-8.468,13.356-13.707,19.353C219.965,153.146,219.604,152.901,219.243,152.655z"/>
	<path class="st48" d="M221.689,173.165c-0.32-0.324-0.64-0.648-0.96-0.972c0.028-7.653,5.204-13.267,7.779-19.919
		c-0.619,5.194-3.415,9.589-5.105,14.384c-0.303,0.86-1.787,2.482,0.902,1.381c0.335-0.033,0.518,0.118,0.547,0.454
		C223.798,170.05,222.744,171.607,221.689,173.165z"/>
	<path class="st25" d="M293.702,233.216c0.315,0.306,0.63,0.611,0.944,0.917c-4.837,4.763-10.193,8.909-15.536,13.07
		c-0.48-0.022-0.961-0.044-1.441-0.066C283.014,242.496,288.358,237.856,293.702,233.216z"/>
	<path class="st49" d="M300.876,160.097c0.902-0.425,1.002-2.913,2.781-1.081c-2.112,1.907,0.256,2.739,1.039,3.75
		c2.978,3.848,7.495,5.892,11.019,9.117c-0.268,0.49,0.533,1.937-1.089,1.217C309.733,169.093,303.868,166.114,300.876,160.097z"/>
	<path class="st50" d="M348.559,208.191c-0.691,0.294-1.382,0.587-2.073,0.881c-2.175-5.905-4.938-11.615-5.93-17.911
		c-0.215-0.241-0.296-0.489-0.244-0.745c0.053-0.26,0.113-0.39,0.179-0.39c0.404-0.252,0.771-0.207,1.102,0.135
		C343.426,196.361,344.976,202.668,348.559,208.191z"/>
	<path class="st51" d="M243.645,254.16c0.343-0.337,0.686-0.675,1.028-1.012c4.783,3.488,9.95,5.796,16.055,5.219
		c-1.284,1.717-3.599,0.132-4.975,1.554C251.048,260.954,245.843,258.478,243.645,254.16z"/>
	<path class="st52" d="M311.91,172.996c-0.399,0.345-0.799,0.69-1.198,1.035c-5.565-1.69-10.985-3.601-13.865-9.441
		C301.092,168.851,306.46,171,311.91,172.996z"/>
	<path class="st53" d="M264.911,153.14c5.035-5.242,9.337-6.262,13.954-3.25C273.855,150.387,269.208,150.797,264.911,153.14z"/>
	<path class="st54" d="M368.875,337.967c0.334-0.367,0.669-0.734,1.003-1.102c1.813,5.543,3.626,11.086,5.438,16.629
		c-0.469,0.153-0.938,0.307-1.406,0.46C372.232,348.625,370.554,343.296,368.875,337.967z"/>
	<path class="st55" d="M284.673,157.327c2.43-1.461-0.188-3.18,0.223-5.13c3.348,2.194,5.844,4.678,6.682,8.71
		c-1.998-1.917-4.241-2.919-6.909-2.824c-0.34-0.17-0.452-0.338-0.339-0.506C284.444,157.41,284.557,157.327,284.673,157.327z"/>
	<path class="st56" d="M216.868,198.03c0.309-0.313,0.618-0.627,0.926-0.94c0.926,5.382,1.851,10.764,2.777,16.146
		c-0.316-0.025-0.632-0.054-0.948-0.087C217.864,208.262,216.824,203.245,216.868,198.03z"/>
	<path class="st57" d="M375.505,287.156c-0.908,0.414-0.732,1.319-0.931,2.054c-1.947-4.175-2.518-8.64-2.784-13.17
		c0.371-0.777,0.839-1.362,1.825-0.918C375.129,278.993,376.764,282.847,375.505,287.156z"/>
	<path class="st58" d="M312.973,211.17c-0.401,0.01-0.802,0.02-1.202,0.03c1.242-4.405,2.484-8.809,3.726-13.214
		c0.352,0.372,0.704,0.745,1.057,1.117C315.726,203.234,314.803,207.337,312.973,211.17z"/>
	<path class="st59" d="M370.784,258.066c0.347-0.725,0.694-1.45,1.041-2.175c3.571,2.345,1.887,5.774,1.843,8.87
		c-0.62,1.594-0.595,3.506-2.225,4.614C370.465,265.65,370.583,261.86,370.784,258.066z"/>
	<path class="st32" d="M272.787,98.443c0.345,0.296,0.69,0.592,1.034,0.888c-3.751,1.423-7.503,2.847-11.254,4.27
		c-0.167-0.421-0.333-0.841-0.5-1.262C265.64,101.04,269.213,99.742,272.787,98.443z"/>
	<path class="st27" d="M287.244,147.282c3.549,1.547,4.093,4.958,5.302,7.97C289.555,153.42,288.681,150.148,287.244,147.282z"/>
	<path class="st60" d="M248.562,149.635c0.39-5.098,3.733-6.272,5.626-8.576c0.33,0.258,0.66,0.516,0.989,0.775
		C253.247,144.11,251.316,146.387,248.562,149.635z"/>
	<path class="st61" d="M346.508,236.984c0.354,0.373,0.708,0.745,1.061,1.118c-0.688,3.056-1.875,5.911-3.912,9.633
		C344.302,243.316,344.883,240.021,346.508,236.984z"/>
	<path class="st62" d="M319.588,217.015c-0.379-0.343-0.757-0.686-1.135-1.029c2.508-1.755,5.346-2.808,8.191-3.847
		c0.012,0.414,0.024,0.827,0.035,1.241C324.315,214.592,321.952,215.804,319.588,217.015z"/>
	<path class="st50" d="M295.667,237.149c0.312,0.321,0.624,0.643,0.936,0.964c-1.75,2.32-3.5,4.641-5.251,6.961
		C291.616,241.672,293.677,239.432,295.667,237.149z"/>
	<path class="st63" d="M316.485,302.209c-0.312,0.341-0.624,0.682-0.935,1.023c-1.741-1.921-3.023-4.093-3.111-7.043
		C313.788,298.196,315.136,300.203,316.485,302.209z"/>
	<path class="st63" d="M311.489,141.257c-0.302,0.342-0.603,0.683-0.904,1.025c-1.57-2.011-2.493-4.283-2.886-6.801
		C309.766,136.938,310.59,139.121,311.489,141.257z"/>
	<path class="st29" d="M214.458,164.343c-0.314,0.323-0.628,0.646-0.943,0.97c-3.078-2.219-3.311-5.025-1.693-8.212
		c0.279,0.054,0.56,0.073,0.844,0.058C214.032,159.363,213.828,161.957,214.458,164.343z"/>
	<path class="st21" d="M284.673,157.327c0.003,0.252,0.002,0.504-0.004,0.756c-2.408,1.084-4.87,1.555-7.539,0.064
		C279.645,157.873,282.159,157.6,284.673,157.327z"/>
	<path class="st64" d="M371.444,269.375c0.338-1.399,0.675-2.798,1.013-4.197c2.407,3.165,2.14,6.427,0.357,9.745
		c-0.342,0.372-0.683,0.744-1.025,1.116C371.674,273.818,371.559,271.597,371.444,269.375z"/>
	<path class="st65" d="M285.785,124.067c0.271,0.062,0.545,0.1,0.823,0.115c2.089,1.861,0.622,4.661,1.858,6.759
		C285.808,129.305,286.896,126.269,285.785,124.067z"/>
	<path class="st1" d="M280.654,335.14c-0.774-0.851-1.481-1.778-2.335-2.541c-4.022-3.592-3.73-7.231,0.241-10.429
		c2.853-2.297,4.499-5.067,5.465-8.509c0.712-2.537,2.14-3.419,3.942-0.69c1.441,2.181,3.322,4.037,3.585,6.963
		c0.221,2.452,3.276,2.459,4.689,4.351c3.116,4.173,4.006,7.604,0.488,12.028c-1.895,2.383-2.782,5.601-3.973,8.504
		c-1.36,3.313-2.972,3.156-4.909,0.553c-1.785-2.399-3.542-4.818-5.312-7.229c-1.832-3.962,2.003-5.837,2.792-8.363
		C283.682,331.031,283.68,334.437,280.654,335.14z"/>
	<path class="st1" d="M256.914,321.075c-0.093-1.649-0.624-3.388,0.316-4.894c1.004-1.608,1.693-4.262,3.892-3.884
		c1.586,0.272,2.259,2.484,2.62,4.441c0.618,3.345,4.177,4.822,5.484,7.971c1.491,3.59,0.441,8.471-3.275,9.194
		c-2.362,0.46-2.334,1.216-2.385,2.964c-0.038,1.286-0.391,2.678-1,3.808c-1.486,2.754-2.982,6.566-5.967,6.79
		c-2.424,0.182-2.61-4.084-3.972-6.268c-0.7-1.123-1.157-2.396-1.836-3.535c-3.753-6.293-2.086-12.186,4.68-16.41
		c0.472,0.139,0.969,0.323,1.225,0.731c0.599,0.954,1.267,1.872,1.848,3.203C257.993,323.593,256.854,322.566,256.914,321.075z"/>
	<path class="st3" d="M261.75,304.586c-0.728-1.47-0.901-1.755-1.016-2.061c-4.023-10.695-2.125-18.363,6.324-26.031
		c2.585-2.345,2.876,0.472,3.168,1.594c0.852,3.277-0.692,7.073,2.257,9.975c0.31,0.305-0.056,1.682-0.487,2.295
		C268.788,294.926,265.484,299.427,261.75,304.586z"/>
	<path class="st3" d="M230.961,290.379c7.836,11.289,6.432,19.395-4.651,27.996C220.823,307.967,223.041,298.68,230.961,290.379z"/>
	<path class="st66" d="M221.139,278.938c0.225-3.238,2.356-4.332,4.953-4.795c12.822-2.287,24.94-6.605,36.557-12.443
		c1.803-0.906,4.173-2.629,5.461,0.439c1.198,2.854-1.367,3.8-3.365,4.461c-12.736,4.217-25.499,8.351-38.278,12.436
		C224.765,279.581,222.926,279.689,221.139,278.938z"/>
	<path class="st67" d="M324.827,368.809c-2.502,2.02-4.065,4.654-5.572,7.478c-0.854,1.6-0.954,5.782-4.222,3.82
		c-2.579-1.549-5.507-4.18-3.395-8.262c2.818-5.448,5.66-10.892,6.334-18.318c4.193,5.084,8.196,8.983,6.75,15.416
		C324.725,368.938,324.827,368.809,324.827,368.809z"/>
	<path class="st68" d="M251.578,284.342c1.656,6.105,3.418,10.791-1.528,15.819c-1.93,1.962-1.398,6.6-3.583,9.429
		c-0.97,1.256-1.335,3.658-3.133,3.457c-1.933-0.215-1.371-2.653-1.971-4.086c-1.476-3.53-1.065-6.94,1.365-9.781
		C246.286,295.018,247.482,289.502,251.578,284.342z"/>
	<path class="st69" d="M298.685,367.19c-0.644,0.62-1.288,1.241-1.932,1.861c-3.675,3.672-4.467-0.491-6.14-2.259
		c-1.344-1.248-2.688-2.496-4.031-3.743c0.019-1.308-0.129-2.646,0.097-3.918c0.328-1.843,1.332-3.543,3.12-4.115
		c1.785-0.571,2.297,1.411,3.259,2.423C295.717,360.24,297.386,363.607,298.685,367.19z"/>
	<path class="st70" d="M237.652,339.102c0.017,1.975,0.113,3.981-0.963,5.752c-1.159,1.905-1.874,5.046-4.143,4.94
		c-1.906-0.089-0.841-3.547-1.81-4.925c-3.379-4.806-1.689-8.478,1.942-11.982C237.122,332.729,235.783,337.199,237.652,339.102z"/>
	<path class="st3" d="M235.499,331.086c1.326-2.897,3.395-5.215,5.622-7.622c3.429,10.384,3.202,11.717-2.534,15.677
		C236.118,337.008,235.033,334.344,235.499,331.086z"/>
	<path class="st4" d="M223.588,328.168c2.906,8.138,0.438,13.787-5.457,18.343C220.066,340.631,217.32,333.383,223.588,328.168z"/>
	<path class="st71" d="M280.654,335.14c2.768-2.674,3.667-6.906,7.756-9.287c-1.315,4.833-6.527,7.204-5.874,12.289
		C281.909,337.142,281.281,336.141,280.654,335.14z"/>
	<path class="st72" d="M235.499,331.086c1.029,2.685,2.059,5.37,3.088,8.055l-0.469,0.032l-0.465-0.071
		c-1.528-0.838-3.25-1.385-2.661-3.868c0.356-1.501-0.567-2.518-2.312-2.347C233.618,332.287,234.558,331.686,235.499,331.086z"/>
	<path class="st73" d="M335.894,372.769c1.514,2.155,3.529,3.068,3.397,5.323c-0.015,0.25-1.024,0.743-1.138,0.641
		C336.654,377.384,334.589,376.239,335.894,372.769z"/>
	<path class="st50" d="M256.914,321.075c1.172,1.954,3.559,3.468,2.271,6.522c-2.754-1.333-1.619-4.819-3.713-6.345
		C255.952,321.193,256.433,321.134,256.914,321.075z"/>
	<path class="st3" d="M184.304,345.757c0.55,2.898-1.315,5.306,2.055,5.95c0.927,0.177,0.826,3.007,0.497,4.647
		c-1.415,7.061-2.88,14.112-4.365,21.356c-4.628-3.379-3.889-9.527-7.681-13.055c-0.289-0.269-0.106-1.336,0.168-1.873
		C177.722,357.406,180.125,351.832,184.304,345.757z"/>
	<path class="st69" d="M206.867,299.598c0.282,8.768,2.394,16.392-0.591,23.942c-0.517,1.308-1.316,3.145-2.839,3.164
		c-1.769,0.022-1.51-2.22-2.307-3.363C194.705,314.142,200.527,307.531,206.867,299.598z"/>
	<path class="st74" d="M195.459,345.749c2.615,6.053,7.409,11.215,4.607,18.489c-0.657,1.705-0.861,2.922-2.766,0.984
		C190.718,358.526,190.15,353.654,195.459,345.749z"/>
	<path class="st75" d="M201.154,353.748c-0.38-4.265-3.617-7.293-3.583-11.617c0.019-2.383,1.385-4.035,2.817-5.655
		c0.6-0.679,1.157-1.991,2.282-1.347c0.753,0.431,1.529,1.506,1.594,2.347C204.684,342.887,207.743,348.673,201.154,353.748z"/>
	<path class="st76" d="M206.621,290.641c-2.058,7.014-6.972,12.24-11.46,17.732C197.163,301.324,201.569,295.78,206.621,290.641z"/>
	<path class="st77" d="M211.828,234.011c1.371,5.084,1.951,10.244,1.514,15.513c-0.532-3.651-2.239-7.105-1.741-10.911
		C211.676,237.08,211.752,235.546,211.828,234.011z"/>
	<path class="st55" d="M263.662,373.278c-0.374,1.241-1.377,0.611-1.957,0.623c-2.041,0.044-1.157-1.864-1.547-2.847
		c-0.489-1.234,0.948-1.09,1.47-1.013C263.506,370.319,262.686,372.389,263.662,373.278z"/>
	<path class="st78" d="M290.613,366.792c2.091,0.633,2.875,4.815,6.139,2.259c-0.348,1.144-0.127,3.255-1.79,2.823
		C292.636,371.271,290.673,369.671,290.613,366.792z"/>
	<path class="st79" d="M232.434,373.265c1.875,2.075,3.751,4.151,5.626,6.226c-3.081-0.928-4.944-2.95-6.484-5.275
		C231.862,373.898,232.148,373.582,232.434,373.265z"/>
	<path class="st50" d="M340.807,190.162c-0.412-2.08-0.824-4.16-1.236-6.249c0.089-0.996,0.177-1.982,0.266-2.969
		c0.263,0.14,0.543,0.218,0.841,0.23c0.716,2.954,1.208,5.931,0.915,8.987C341.331,190.161,341.069,190.162,340.807,190.162z"/>
	<path class="st26" d="M320.101,78.189c4.953-0.109,7.825,4.837,12.591,5.181c-0.404,0.676-0.808,1.353-1.212,2.029
		C327.687,82.996,323.894,80.593,320.101,78.189z"/>
</g>
</svg>
