<?xml version="1.0" encoding="utf-8"?>
<!-- Generator: Adobe Illustrator 23.1.0, SVG Export Plug-In . SVG Version: 6.00 Build 0)  -->
<svg version="1.1" id="Layer_1" xmlns="http://www.w3.org/2000/svg" xmlns:xlink="http://www.w3.org/1999/xlink" x="0px" y="0px"
	 viewBox="0 0 595.28 841.89" style="enable-background:new 0 0 595.28 841.89;" xml:space="preserve">
<style type="text/css">
	.st0{fill:#000;}
</style>
<path class="st0" d="M-603.79,354.71c8.48-5.59,17.93-9.75,27.55-13.03c24.07-8.22,49.93-10.88,75.3-10.73
	c39.12,0.22,82.83,5.06,119.43,19.1c10.04,3.85,19.56,8.91,29.53,12.93c26.96,10.87,57.15,13.59,85.76,8.33
	c29.36-5.4,56.31-19.63,85.35-26.67c19.29-4.68,53.91-14.78,71.94-1.5v-98.73H-604.1v110.5
	C-603.97,354.83-603.87,354.76-603.79,354.71z"/>
<path class="st0" d="M-121.25,675.51c-41.43,16.87-88.27,23.2-132.86,19.02c-19.56-1.83-38.93-5.69-57.64-11.56
	c-18.89-5.93-36.08-15.62-54.66-22.46c-29-10.69-60.07-9.55-90.18-4.19c-17.9,3.18-35.38,8.17-52.57,13.96
	c-4.96,1.67-9.9,3.4-14.81,5.18c-21.48,7.76-41.65,13.79-64.44,16.97c-0.74,0.1-9.08,0.99-15.68,1.64v35.25h495.18V670.2
	C-110.89,671.85-120.29,675.12-121.25,675.51z"/>
</svg>
